<svg width="152" height="40" viewBox="0 0 152 40" fill="none" xmlns="http:/www.w3.org/2000/svg">
<path d="M2.48865 9.47723C2.48865 9.88196 2.58082 10.2867 2.76516 10.6914C2.55778 10.9612 2.21213 11.0961 1.72823 11.0961C1.24432 11.0961 0.829549 10.9275 0.483903 10.5902C0.161301 10.253 0 9.70208 0 8.93761C0 7.16133 0.553033 5.72232 1.6591 4.62057C2.76516 3.49635 4.23992 2.93423 6.08336 2.93423C9.12504 2.93423 10.9339 4.55312 11.51 7.79089C12.0169 6.28443 12.8465 5.08151 13.9986 4.18213C15.1508 3.28274 16.4988 2.83305 18.0427 2.83305C21.4531 2.85554 23.6537 4.67679 24.6445 8.2968C25.1054 6.65543 25.9234 5.34008 27.0986 4.35076C28.2968 3.33895 29.714 2.83305 31.35 2.83305C33.7465 2.85554 35.5323 3.74368 36.7075 5.49747C37.9058 7.22878 38.5049 9.55593 38.5049 12.4789V22.0236C38.5049 23.3277 38.7699 24.3732 39.2999 25.1602C39.8529 25.9472 40.5672 26.3406 41.4429 26.3406C43.6089 26.3406 44.6919 24.2271 44.6919 20C44.715 19.8651 44.8302 19.7976 45.0376 19.7976C45.268 19.7976 45.4408 19.8314 45.5561 19.8988C45.9017 20.1461 46.0745 20.697 46.0745 21.5514C46.0745 23.4401 45.6137 24.9691 44.6919 26.1383C43.7702 27.3075 42.5489 27.8921 41.0281 27.8921C38.816 27.8921 37.2951 27.1388 36.4656 25.6324C35.7282 24.2608 35.3595 22.3834 35.3595 20V12.4789C35.3595 7.17257 34.023 4.51939 31.35 4.51939C29.3683 4.51939 27.836 5.37381 26.7529 7.08263C25.693 8.79146 25.163 11.0624 25.163 13.8954V25.6324C25.163 26.3069 24.9902 26.8241 24.6445 27.1838C24.2989 27.5211 23.8726 27.6897 23.3656 27.6897C22.8587 27.6897 22.4209 27.5323 22.0522 27.2175V12.4789C22.0522 7.17257 20.7157 4.51939 18.0427 4.51939C15.9227 4.51939 14.3558 5.51996 13.3419 7.52108C12.328 9.49972 11.8211 12.1641 11.8211 15.5143V19.8314C11.8211 22.6194 11.3602 24.8342 10.4385 26.4755C9.53981 28.0944 8.16875 28.9039 6.32531 28.9039C4.50491 28.9039 3.13385 28.4879 2.21213 27.656C1.29041 26.8465 0.829549 25.7673 0.829549 24.4182C0.829549 22.6869 1.40562 21.8212 2.55778 21.8212C2.83429 21.8212 3.07624 21.8887 3.28363 22.0236C3.49102 22.136 3.66384 22.3272 3.8021 22.597C3.61775 23.0691 3.52558 23.7774 3.52558 24.7218C3.52558 25.6436 3.76753 26.3406 4.25144 26.8128C4.75838 27.285 5.39207 27.5211 6.15249 27.5211C7.78854 27.5211 8.60657 25.6324 8.60657 21.855V8.8027C8.60657 7.4986 8.33005 6.45306 7.77702 5.66611C7.24703 4.87915 6.50965 4.48567 5.56489 4.48567C4.64317 4.48567 3.89427 4.85666 3.3182 5.59865C2.76516 6.31816 2.48865 7.61102 2.48865 9.47723Z" fill="white"/>
<path d="M51.8889 11.9393C53.9398 11.9393 55.6104 12.6026 56.9008 13.9292C58.1912 15.2558 58.8364 17.0658 58.8364 19.3592C58.8364 21.6301 58.2257 23.5188 57.0045 25.0253C55.8062 26.5318 54.1932 27.285 52.1654 27.285C50.1376 27.285 48.444 26.6105 47.0844 25.2614C45.748 23.8898 45.0797 22.0011 45.0797 19.5953C45.0797 17.1669 45.7019 15.2895 46.9462 13.9629C48.2136 12.6138 49.8611 11.9393 51.8889 11.9393ZM51.9235 13.2546C51.3013 13.2546 50.7598 13.412 50.299 13.7268C49.8611 14.0191 49.6422 14.4463 49.6422 15.0084C49.6422 16.4474 50.2183 17.8302 51.3705 19.1568C52.5226 20.4609 53.8937 21.3266 55.4836 21.7538C55.5297 20.8994 55.5528 20.1686 55.5528 19.5616C55.5528 17.2232 55.2993 15.593 54.7923 14.6712C54.2854 13.7268 53.3291 13.2546 51.9235 13.2546ZM48.3633 19.5616C48.3633 21.855 48.6514 23.4963 49.2275 24.4857C49.8266 25.475 50.7944 25.9696 52.1309 25.9696C53.0526 25.9696 53.7554 25.7448 54.2393 25.2951C54.7463 24.8229 55.0919 24.0697 55.2762 23.0354C53.7785 22.7206 52.3959 22.0573 51.1285 21.0455C49.8842 20.0337 48.974 18.9095 48.3979 17.6728C48.3749 18.0551 48.3633 18.6847 48.3633 19.5616Z" fill="white"/>
<path d="M64.7013 21.4503V26.8128C64.4709 27.1276 64.0676 27.285 63.4915 27.285C62.9155 27.285 62.4546 27.1164 62.109 26.7791C61.7633 26.4193 61.5905 25.9022 61.5905 25.2277V12.4115C61.8209 12.0967 62.2242 11.9393 62.8002 11.9393C63.3763 11.9393 63.8372 12.1192 64.1828 12.4789C64.5285 12.8162 64.7013 13.3221 64.7013 13.9966V16.5599C65.8534 13.7718 67.4434 12.3777 69.4712 12.3777C70.9229 12.3777 71.9829 12.76 72.6511 13.5245C73.3194 14.2664 73.6535 15.1546 73.6535 16.1889C73.6535 16.751 73.4807 17.2007 73.135 17.5379C72.7894 17.8752 72.4553 18.0438 72.1327 18.0438C71.5335 18.0438 71.1418 17.9089 70.9575 17.6391C71.0957 17.3019 71.1649 16.8184 71.1649 16.1889C71.1649 15.5593 70.946 14.9859 70.5081 14.4688C70.0703 13.9517 69.5403 13.6931 68.9182 13.6931C67.8351 13.6931 66.8558 14.6599 65.9802 16.5936C65.1276 18.5048 64.7013 20.1237 64.7013 21.4503Z" fill="white"/>
<path d="M88.7814 14.8061C89.5418 16.0877 89.9221 17.819 89.9221 20C89.9221 22.1585 89.3575 23.9123 88.2284 25.2614C87.1223 26.588 85.6706 27.2513 83.8733 27.2513C82.8133 27.2513 81.8685 26.8915 81.039 26.172C80.2325 25.4525 79.8292 24.3058 79.8292 22.7319C79.8292 19.0444 81.7072 16.2901 85.4632 14.4688C84.8641 13.6594 84.023 13.2546 82.94 13.2546C81.8801 13.2546 80.8661 13.7718 79.8983 14.8061C78.9305 15.8404 78.4466 17.3918 78.4466 19.4604V39.5278C78.2162 39.8426 77.813 40 77.2369 40C76.6608 40 76.1999 39.8201 75.8543 39.4604C75.5086 39.1231 75.3358 38.6172 75.3358 37.9427V12.4115C75.5663 12.0967 75.9695 11.9393 76.5456 11.9393C77.1217 11.9393 77.5825 12.1192 77.9282 12.4789C78.2738 12.8162 78.4466 13.3221 78.4466 13.9966V14.7386C79.6449 12.8724 81.2233 11.9393 83.182 11.9393C85.1637 11.9393 86.7076 12.4789 87.8136 13.5582C90.2331 12.7937 92.9407 12.4115 95.9363 12.4115C96.5584 12.4115 96.8695 12.6588 96.8695 13.1535L96.6621 13.6594C93.8739 13.6594 91.247 14.0416 88.7814 14.8061ZM83.8041 25.9359C85.6937 25.9359 86.6384 24.1034 86.6384 20.4384C86.6384 18.5048 86.4771 16.9871 86.1545 15.8853C83.1128 17.5042 81.592 19.8201 81.592 22.8331C81.592 23.8224 81.8109 24.5868 82.2487 25.1265C82.6866 25.6661 83.205 25.9359 83.8041 25.9359Z" fill="white"/>
<path d="M113.385 19.1906C113.8 19.1906 114.008 19.7864 114.008 20.9781C114.008 22.7094 113.547 24.1934 112.625 25.43C111.726 26.6667 110.551 27.285 109.099 27.285C107.648 27.285 106.438 26.7903 105.47 25.801C104.525 24.7892 104.053 23.4963 104.053 21.9224V17.1332C104.053 14.4576 103.362 13.1197 101.979 13.1197C100.758 13.1197 99.7555 13.7268 98.972 14.941C98.1886 16.1551 97.7968 18.19 97.7968 21.0455V26.8128C97.5664 27.1276 97.1631 27.285 96.5871 27.285C96.011 27.285 95.5501 27.1164 95.2045 26.7791C94.8588 26.4193 94.686 25.9022 94.686 25.2277V8.33052C94.686 5.40753 94.9741 3.29399 95.5501 1.98988C96.1262 0.663294 97.2323 0 98.8683 0C99.744 0 100.424 0.359753 100.908 1.07926C101.392 1.79876 101.633 2.82181 101.633 4.1484C101.633 6.55424 100.355 9.00506 97.7968 11.5008V14.4688C98.7646 12.7825 100.297 11.9393 102.394 11.9393C103.892 11.9393 105.078 12.4002 105.954 13.3221C106.853 14.244 107.302 15.5705 107.302 17.3019V22.0911C107.302 23.3727 107.509 24.3395 107.924 24.9916C108.339 25.6436 108.95 25.9696 109.756 25.9696C110.563 25.9696 111.277 25.4413 111.899 24.3845C112.544 23.3052 112.867 21.6414 112.867 19.3929C112.89 19.258 113.063 19.1906 113.385 19.1906ZM97.7968 9.88196C99.3638 7.90332 100.147 5.98089 100.147 4.11467C100.147 2.24845 99.7324 1.31535 98.9029 1.31535C98.442 1.31535 98.1425 1.83249 98.0042 2.86678C97.866 3.90107 97.7968 6.23946 97.7968 9.88196Z" fill="white"/>
<path d="M113.5 8.63406C113.108 8.25183 112.913 7.77965 112.913 7.21754C112.913 6.65542 113.108 6.18325 113.5 5.80101C113.892 5.39629 114.376 5.19393 114.952 5.19393C115.528 5.19393 116.012 5.39629 116.404 5.80101C116.818 6.18325 117.026 6.65542 117.026 7.21754C117.026 7.77965 116.818 8.25183 116.404 8.63406C116.012 9.0163 115.528 9.20742 114.952 9.20742C114.376 9.20742 113.892 9.0163 113.5 8.63406ZM113.362 13.9966C113.362 13.3221 113.535 12.8162 113.88 12.4789C114.226 12.1192 114.664 11.9393 115.194 11.9393C115.724 11.9393 116.15 12.0967 116.473 12.4115V22.0911C116.473 23.3727 116.726 24.3395 117.233 24.9916C117.74 25.6436 118.431 25.9696 119.307 25.9696C120.183 25.9696 121.001 25.4525 121.761 24.4182C122.522 23.3839 122.902 21.7088 122.902 19.3929C122.948 19.258 123.121 19.1906 123.42 19.1906C123.835 19.1906 124.042 19.7864 124.042 20.9781C124.042 22.7094 123.558 24.1934 122.591 25.43C121.623 26.6667 120.39 27.285 118.892 27.285C117.026 27.285 115.632 26.7454 114.71 25.6661C113.811 24.5868 113.362 23.0579 113.362 21.0793V13.9966Z" fill="white"/>
<path d="M137.808 20.2698C138.292 20.2698 138.534 20.5958 138.534 21.2479C138.534 21.8999 138.395 22.552 138.119 23.204C137.842 23.8561 137.439 24.4969 136.909 25.1265C136.402 25.756 135.676 26.2732 134.731 26.6779C133.81 27.0826 132.761 27.285 131.586 27.285C129.005 27.285 126.977 26.6554 125.503 25.3963C124.051 24.1147 123.325 22.2485 123.325 19.7976C123.325 17.3243 123.97 15.4019 125.261 14.0304C126.551 12.6363 128.199 11.9393 130.204 11.9393C131.655 11.9393 132.715 12.3215 133.383 13.086C134.052 13.828 134.386 14.7161 134.386 15.7504C134.386 16.3125 134.213 16.7622 133.867 17.0995C133.522 17.4368 133.188 17.6054 132.865 17.6054C132.266 17.6054 131.874 17.4705 131.69 17.2007C131.828 16.8634 131.897 16.38 131.897 15.7504C131.897 15.1209 131.678 14.5475 131.24 14.0304C130.803 13.5132 130.273 13.2546 129.65 13.2546C128.567 13.2546 127.784 13.7718 127.3 14.8061C126.839 15.8404 126.609 17.4705 126.609 19.6965C126.609 21.8999 127.047 23.4963 127.922 24.4857C128.821 25.475 130.065 25.9696 131.655 25.9696C133.245 25.9696 134.582 25.4975 135.665 24.5531C136.748 23.5863 137.289 22.226 137.289 20.4722C137.312 20.3373 137.485 20.2698 137.808 20.2698Z" fill="white"/>
<path d="M144.661 11.9393C146.712 11.9393 148.382 12.6026 149.673 13.9292C150.963 15.2558 151.608 17.0658 151.608 19.3592C151.608 21.6301 150.998 23.5188 149.776 25.0253C148.578 26.5318 146.965 27.285 144.937 27.285C142.91 27.285 141.216 26.6105 139.856 25.2614C138.52 23.8898 137.852 22.0011 137.852 19.5953C137.852 17.1669 138.474 15.2895 139.718 13.9629C140.986 12.6138 142.633 11.9393 144.661 11.9393ZM144.696 13.2546C144.073 13.2546 143.532 13.412 143.071 13.7268C142.633 14.0191 142.414 14.4463 142.414 15.0084C142.414 16.4474 142.99 17.8302 144.142 19.1568C145.295 20.4609 146.666 21.3266 148.256 21.7538C148.302 20.8994 148.325 20.1686 148.325 19.5616C148.325 17.2232 148.071 15.593 147.564 14.6712C147.057 13.7268 146.101 13.2546 144.696 13.2546ZM141.135 19.5616C141.135 21.855 141.423 23.4963 141.999 24.4857C142.599 25.475 143.566 25.9696 144.903 25.9696C145.825 25.9696 146.527 25.7448 147.011 25.2951C147.518 24.8229 147.864 24.0697 148.048 23.0354C146.55 22.7206 145.168 22.0573 143.901 21.0455C142.656 20.0337 141.746 18.9095 141.17 17.6728C141.147 18.0551 141.135 18.6847 141.135 19.5616Z" fill="white"/>
</svg>

