<svg width="24" height="24" viewBox="0 0 24 24" fill="none" xmlns="http:/www.w3.org/2000/svg">
<g clip-path="url(#clip0_13088_1470)">
<path d="M0 0V24H24V0H0ZM3.72952 9.91708H9.835C10.4596 9.92146 11.1161 10.1617 11.6192 10.6246C12.0823 11.0818 12.3543 11.7375 12.3677 12.4395C12.3654 12.9787 12.2627 13.5999 11.9048 14.0948C11.6547 14.4315 11.2631 14.6861 10.8311 14.8317V14.8888C11.286 15.0026 11.7346 15.2456 12.0542 15.6476C12.4345 16.1393 12.5645 16.8025 12.5757 17.4552C12.5711 18.1476 12.3314 18.8892 11.7949 19.4386C11.318 19.9071 10.6334 20.1753 9.9126 20.19H3.7294V9.91716L3.72952 9.91708ZM14.4287 9.9376H18.9697V11.6222H14.4287V9.9376ZM16.6025 12.1261C17.2361 12.1261 17.7982 12.2084 18.2886 12.3736C18.7833 12.534 19.1996 12.7849 19.5381 13.1251C19.8765 13.4605 20.132 13.8882 20.3056 14.4083C20.5346 15.0891 20.578 15.9607 20.5737 16.7564H15.2943C15.2943 17.3009 15.4025 17.7236 15.6195 18.025C15.8408 18.3215 16.203 18.4688 16.7064 18.4688C17.1847 18.4666 17.7449 18.3132 17.9296 17.7759C17.9773 17.635 18.0013 17.4852 18.0014 17.3248H20.5736C20.5683 18.1422 20.3051 18.954 19.6156 19.5557C18.854 20.1753 17.7894 20.352 16.765 20.3717C16.1314 20.3717 15.5588 20.2918 15.0468 20.1314C14.5391 19.9661 14.1077 19.7129 13.7518 19.3726C13.396 19.0324 13.1225 18.6047 12.9315 18.0894C12.7406 17.5693 12.6444 16.9549 12.6444 16.2452C12.6444 15.555 12.7376 14.9529 12.9242 14.4376C13.1108 13.9223 13.3753 13.4947 13.7181 13.1544C14.0653 12.8093 14.4816 12.5511 14.9676 12.381C15.458 12.2108 16.0035 12.1261 16.6024 12.1261L16.6025 12.1261ZM6.67234 12.17V13.919H8.69678C8.87926 13.9176 9.0529 13.8341 9.18458 13.6861C9.31246 13.5304 9.37514 13.3253 9.3794 13.1104V12.964C9.37808 12.7701 9.30356 12.5698 9.17726 12.4029C9.06248 12.2673 8.8903 12.1798 8.6968 12.17H6.67234ZM16.7065 14.0216C16.2595 14.0216 15.9258 14.1408 15.7045 14.379C15.4875 14.6171 15.3553 14.9404 15.3075 15.3487H17.8974C17.8974 14.9355 17.7936 14.6123 17.5853 14.379C17.3771 14.1408 17.084 14.0216 16.7065 14.0216ZM6.67234 16.0416V17.7979H8.91062C9.09104 17.7965 9.26378 17.7137 9.39842 17.5723C9.52568 17.4173 9.59148 17.2112 9.5947 16.9966V16.8428C9.59354 16.6472 9.53012 16.4432 9.39842 16.2745C9.28282 16.1381 9.10384 16.0526 8.91062 16.0416H6.67234Z" fill="url(#paint0_linear_13088_1470)"/>
</g>
<defs>
<linearGradient id="paint0_linear_13088_1470" x1="6.21181" y1="2.3067" x2="18.6735" y2="21.9081" gradientUnits="userSpaceOnUse">
<stop stop-color="#537993"/>
<stop offset="0.25" stop-color="#F77847"/>
<stop offset="0.5" stop-color="#FEA800"/>
<stop offset="1" stop-color="#EADDBF"/>
</linearGradient>
<clipPath id="clip0_13088_1470">
<rect width="24" height="24" fill="white"/>
</clipPath>
</defs>
</svg>

