<svg width="24" height="24" viewBox="0 0 24 24" fill="none" xmlns="http:/www.w3.org/2000/svg">
<rect width="24" height="24" fill="url(#paint0_linear_13088_1468)"/>
<path d="M8.7943 4.67263C10.0348 4.12915 11.3931 3.90937 12.7418 4.0339C14.0905 4.15843 15.3855 4.62319 16.5053 5.38458C15.5794 6.63897 14.4137 7.69745 13.0756 8.49876C11.9511 6.92113 10.4885 5.614 8.7943 4.67263ZM11.9754 9.07951C10.8149 7.49699 9.27672 6.22946 7.50086 5.3922C5.94963 6.44947 4.81794 8.01604 4.30223 9.81997C5.21153 10.0419 6.14423 10.154 7.08028 10.1537C8.77074 10.1553 10.4412 9.78874 11.9754 9.07951ZM20 11.5147C19.8759 9.46931 18.9692 7.54993 17.4676 6.15403C16.4571 7.5118 15.1915 8.65987 13.7415 9.5341C14.1636 10.2647 14.5129 11.035 14.7841 11.8339C16.483 11.3744 18.2577 11.2658 20 11.5147ZM15.1239 13.0171C15.352 13.987 15.4669 14.98 15.4664 15.9763C15.4656 17.1403 15.3081 18.2988 14.998 19.4208C16.3589 18.871 17.5427 17.9589 18.4208 16.7836C19.2989 15.6084 19.8376 14.2151 19.9782 12.7553C18.3596 12.503 16.7059 12.5922 15.1239 13.0171ZM13.6116 12.2129C13.3635 11.4856 13.0439 10.7846 12.6575 10.1202C10.917 10.9546 9.01079 11.3867 7.08028 11.3845C6.06273 11.3848 5.04869 11.265 4.05925 11.0277C3.89814 12.3428 4.06682 13.6772 4.5501 14.911C5.03339 16.1447 5.81612 17.2391 6.82786 18.0956C8.31828 15.3922 10.723 13.307 13.6116 12.2129ZM7.83358 18.8246C9.5511 19.8746 11.6017 20.2391 13.5763 19.8454C14.0114 18.6017 14.2339 17.2938 14.2345 15.9763C14.2345 15.1103 14.1381 14.247 13.9471 13.4023C11.3263 14.4221 9.15763 16.3456 7.83358 18.8246Z" fill="black"/>
<defs>
<linearGradient id="paint0_linear_13088_1468" x1="6.21181" y1="2.3067" x2="18.6735" y2="21.9081" gradientUnits="userSpaceOnUse">
<stop stop-color="#537993"/>
<stop offset="0.25" stop-color="#F77847"/>
<stop offset="0.5" stop-color="#FEA800"/>
<stop offset="1" stop-color="#EADDBF"/>
</linearGradient>
</defs>
</svg>

