<svg width="70" height="70" viewBox="0 0 70 70" fill="none" xmlns="http://www.w3.org/2000/svg">
<path d="M44.5455 53.5C45.6909 50.1355 48.0653 47.2668 50.4159 44.4086C51.0364 43.6598 51.6568 42.9109 52.2534 42.1516C54.6159 39.1457 56 35.507 56 31.573C56 21.3109 46.5977 13 35 13C23.4023 13 14 21.3109 14 31.5625C14 35.4965 15.3841 39.1457 17.7466 42.141C18.3432 42.9004 18.9636 43.6492 19.5841 44.398C21.9466 47.2562 24.321 50.1355 25.4545 53.4895H44.5455V53.5ZM35 67C40.2739 67 44.5455 63.2242 44.5455 58.5625V53.4895H25.4545V58.5625C25.4545 63.2242 29.7261 67 35 67ZM25.4545 31.5625C25.4545 32.4906 24.5955 33.25 23.5455 33.25C22.4955 33.25 21.6364 32.4906 21.6364 31.5625C21.6364 25.034 27.6142 19.75 35 19.75C36.05 19.75 36.9091 20.5094 36.9091 21.4375C36.9091 22.3656 36.05 23.125 35 23.125C29.7261 23.125 25.4545 26.9008 25.4545 31.5625Z" fill="#FFF9EB"/>
<foreignObject x="10.5" y="-0.5" width="49" height="61"><div xmlns="http://www.w3.org/1999/xhtml" style="backdrop-filter:blur(1.75px);clip-path:url(#bgblur_0_14593_2793_clip_path);height:100%;width:100%"></div></foreignObject><path data-figma-bg-blur-radius="3.5" d="M44.5455 43.5C45.6909 40.1355 48.0653 37.2668 50.4159 34.4086C51.0364 33.6598 51.6568 32.9109 52.2534 32.1516C54.6159 29.1457 56 25.507 56 21.573C56 11.3109 46.5977 3 35 3C23.4023 3 14 11.3109 14 21.5625C14 25.4965 15.3841 29.1457 17.7466 32.141C18.3432 32.9004 18.9636 33.6492 19.5841 34.398C21.9466 37.2562 24.321 40.1355 25.4545 43.4895H44.5455V43.5ZM35 57C40.2739 57 44.5455 53.2242 44.5455 48.5625V43.5L25.4545 43.4895V48.5625C25.4545 53.2242 29.7261 57 35 57Z" fill="url(#paint0_linear_14593_2793)"/>
<defs>
<clipPath id="bgblur_0_14593_2793_clip_path" transform="translate(-10.5 0.5)"><path d="M44.5455 43.5C45.6909 40.1355 48.0653 37.2668 50.4159 34.4086C51.0364 33.6598 51.6568 32.9109 52.2534 32.1516C54.6159 29.1457 56 25.507 56 21.573C56 11.3109 46.5977 3 35 3C23.4023 3 14 11.3109 14 21.5625C14 25.4965 15.3841 29.1457 17.7466 32.141C18.3432 32.9004 18.9636 33.6492 19.5841 34.398C21.9466 37.2562 24.321 40.1355 25.4545 43.4895H44.5455V43.5ZM35 57C40.2739 57 44.5455 53.2242 44.5455 48.5625V43.5L25.4545 43.4895V48.5625C25.4545 53.2242 29.7261 57 35 57Z"/>
</clipPath><linearGradient id="paint0_linear_14593_2793" x1="24.1824" y1="17.2762" x2="161.123" y2="50.9609" gradientUnits="userSpaceOnUse">
<stop stop-color="white" stop-opacity="0.28"/>
<stop offset="0.35" stop-color="white" stop-opacity="0.41"/>
<stop offset="1" stop-color="white"/>
</linearGradient>
</defs>
</svg>
