<svg width="20" height="20" viewBox="0 0 20 20" fill="none" xmlns="http://www.w3.org/2000/svg">
<g clip-path="url(#clip0_13656_221)">
<path d="M0 0V20H20V0H0ZM4.90478 3.93188C5.69695 3.9408 6.47728 4.4873 6.51123 5.43335C6.52817 6.2746 5.79505 6.91537 4.88403 6.93482H4.86207C4.07778 6.92577 3.31187 6.36555 3.27637 5.43335C3.28755 4.60147 3.98682 3.95162 4.90478 3.93188ZM13.4033 7.9065C14.2742 7.9119 15.0962 8.17027 15.7715 8.85867C16.4733 9.64133 16.6986 10.7205 16.7236 11.8176V16.8079H13.8477V12.157C13.8413 11.2853 13.5427 10.2257 12.3889 10.1904C11.7127 10.1976 11.2359 10.5906 10.9094 11.2476C10.8203 11.459 10.8075 11.7021 10.8032 11.9446V16.8079H7.92847C7.93947 14.3766 7.95458 11.9455 7.94922 9.51417C7.94922 8.82353 7.94257 8.3585 7.92847 8.1189H10.8032V9.34448C11.0472 8.99743 11.3179 8.6683 11.6809 8.40332C12.1733 8.0519 12.7648 7.91718 13.4033 7.9065ZM3.44605 8.1189H6.3208V16.8079H3.44605V8.1189Z" fill="url(#paint0_linear_13656_221)"/>
</g>
<defs>
<linearGradient id="paint0_linear_13656_221" x1="5.17651" y1="1.92225" x2="15.5612" y2="18.2567" gradientUnits="userSpaceOnUse">
<stop stop-color="#537993"/>
<stop offset="0.25" stop-color="#F77847"/>
<stop offset="0.5" stop-color="#FEA800"/>
<stop offset="1" stop-color="#EADDBF"/>
</linearGradient>
<clipPath id="clip0_13656_221">
<rect width="20" height="20" fill="white"/>
</clipPath>
</defs>
</svg>
