<svg width="83" height="70" viewBox="0 0 83 70" fill="none" xmlns="http://www.w3.org/2000/svg">
<g clip-path="url(#clip0_16567_349)">
<path d="M79.8849 41.0664C79.8849 41.7923 79.4057 42.5183 78.4472 43.0751L43.7998 63.0981C41.8898 64.1976 38.8099 64.1976 36.914 63.0981L3.94397 43.2794C2.99955 42.7297 2.53439 42.0179 2.52734 41.299V42.5676C2.53439 43.2865 3.0066 43.9983 3.95102 44.5481L36.921 64.3667C38.8169 65.4662 41.9039 65.4662 43.8068 64.3667L78.4542 44.3437C79.4127 43.7869 79.892 43.061 79.892 42.335V41.0664H79.8849Z" fill="#3C7AE0"/>
<path d="M3.96513 39.2915C2.05515 40.391 2.04811 42.1811 3.94399 43.2806L36.914 63.0992C38.8099 64.1987 41.8968 64.1987 43.7998 63.0992L78.4472 43.0762C80.3572 41.9767 80.3642 40.1866 78.4683 39.0871L45.4983 19.2685C43.6024 18.169 40.5225 18.169 38.6125 19.2685L3.96513 39.2915Z" fill="#3C7AE0"/>
<path opacity="0.34" d="M78.4683 39.0871L45.4983 19.2685C43.6024 18.169 40.5225 18.169 38.6125 19.2685L3.96513 39.2915C2.05516 40.391 2.04811 42.1811 3.94399 43.2806L36.914 63.0992C38.8099 64.1987 41.8969 64.1987 43.7998 63.0992L78.4472 43.0762C80.3572 41.9767 80.3642 40.1866 78.4683 39.0871ZM78.2146 42.6815L43.5672 62.7046C42.7144 63.1979 41.5726 63.4728 40.3463 63.4728C39.127 63.4728 37.9853 63.1979 37.1395 62.7116L4.16952 42.893C3.4013 42.4489 2.97843 41.8851 2.98548 41.3001C2.98548 40.7152 3.4154 40.1443 4.19066 39.6932L38.8381 19.6702C39.6909 19.1768 40.8326 18.902 42.059 18.902C43.2853 18.902 44.42 19.1768 45.2657 19.6631L78.2358 39.4818C79.004 39.9258 79.4268 40.4896 79.4198 41.0746C79.4198 41.6596 78.9899 42.2305 78.2076 42.6815H78.2146Z" fill="url(#paint0_radial_16567_349)" style="mix-blend-mode:screen"/>
<path d="M79.8849 29.689C79.8849 30.4149 79.4057 31.1408 78.4472 31.6976L43.7998 51.7207C41.8898 52.8201 38.8099 52.8201 36.914 51.7207L3.94397 31.902C2.99955 31.3523 2.53439 30.6404 2.52734 29.9215V31.1902C2.53439 31.909 3.0066 32.6209 3.95102 33.1706L36.921 52.9893C38.8169 54.0887 41.9039 54.0887 43.8068 52.9893L78.4542 32.9662C79.4127 32.4094 79.892 31.6835 79.892 30.9576V29.689H79.8849Z" fill="url(#paint1_radial_16567_349)"/>
<path d="M3.96513 27.9121C2.05515 29.0116 2.04811 30.8017 3.94399 31.9012L36.914 51.7199C38.8099 52.8193 41.8968 52.8193 43.7998 51.7199L78.4472 31.6968C80.3572 30.5973 80.3642 28.8072 78.4683 27.7077L45.4983 7.88906C43.6024 6.78959 40.5225 6.78959 38.6125 7.88906L3.96513 27.9121Z" fill="url(#paint2_linear_16567_349)"/>
<path opacity="0.34" d="M78.4683 27.7077L45.4983 7.88906C43.6024 6.78959 40.5225 6.78959 38.6125 7.88906L3.96513 27.9121C2.05516 29.0116 2.04811 30.8017 3.94399 31.9012L36.914 51.7199C38.8099 52.8193 41.8969 52.8193 43.7998 51.7199L78.4472 31.6968C80.3572 30.5973 80.3642 28.8072 78.4683 27.7077ZM78.2146 31.3021L43.5672 51.3252C42.7144 51.8185 41.5726 52.0934 40.3463 52.0934C39.127 52.0934 37.9853 51.8185 37.1395 51.3322L4.16952 31.5136C3.4013 31.0695 2.97843 30.5057 2.98548 29.9207C2.98548 29.3358 3.4154 28.7649 4.19066 28.3138L38.8381 8.29078C39.6909 7.79743 40.8326 7.52257 42.059 7.52257C43.2853 7.52257 44.42 7.79743 45.2657 8.28374L78.2358 28.1024C79.004 28.5464 79.4268 29.1102 79.4198 29.6952C79.4198 30.2802 78.9899 30.8511 78.2076 31.3021H78.2146Z" fill="url(#paint3_radial_16567_349)" style="mix-blend-mode:screen"/>
</g>
<defs>
<radialGradient id="paint0_radial_16567_349" cx="0" cy="0" r="1" gradientUnits="userSpaceOnUse" gradientTransform="translate(33.4605 4.62999) scale(78.6051 78.6051)">
<stop stop-color="white"/>
<stop offset="0.68" stop-color="#4D4D4D"/>
<stop offset="1"/>
</radialGradient>
<radialGradient id="paint1_radial_16567_349" cx="0" cy="0" r="1" gradientUnits="userSpaceOnUse" gradientTransform="translate(-20.8011 -5.7337) scale(207.983 207.983)">
<stop stop-color="white" stop-opacity="0.1"/>
<stop offset="0.35" stop-color="white" stop-opacity="0.41"/>
<stop offset="1" stop-color="white"/>
</radialGradient>
<linearGradient id="paint2_linear_16567_349" x1="21.2818" y1="19.0881" x2="228.736" y2="130.684" gradientUnits="userSpaceOnUse">
<stop stop-color="white" stop-opacity="0.1"/>
<stop offset="0.35" stop-color="white" stop-opacity="0.41"/>
<stop offset="1" stop-color="white"/>
</linearGradient>
<radialGradient id="paint3_radial_16567_349" cx="0" cy="0" r="1" gradientUnits="userSpaceOnUse" gradientTransform="translate(33.4605 -6.7494) scale(78.6051 78.6051)">
<stop stop-color="white"/>
<stop offset="0.68" stop-color="#4D4D4D"/>
<stop offset="1"/>
</radialGradient>
<clipPath id="clip0_16567_349">
<rect width="82.7273" height="70" fill="white"/>
</clipPath>
</defs>
</svg>
