<svg width="70" height="70" viewBox="0 0 70 70" fill="none" xmlns="http://www.w3.org/2000/svg">
<g clip-path="url(#clip0_15112_651)">
<path d="M68.3861 40.6045C68.3861 41.3304 67.9806 42.0564 67.1695 42.6131L37.8525 62.6362C36.2364 63.7356 33.6303 63.7356 32.0261 62.6362L4.12837 42.8175C3.32925 42.2678 2.93565 41.556 2.92969 40.8371V42.1057C2.93565 42.8246 3.33521 43.5364 4.13433 44.0861L32.032 63.9048C33.6362 65.0043 36.2483 65.0043 37.8585 63.9048L67.1755 43.8818C67.9865 43.325 68.3921 42.599 68.3921 41.8731V40.6045H68.3861Z" fill="#A49693"/>
<path d="M4.14628 38.8296C2.53014 39.929 2.52418 41.7192 4.12839 42.8187L32.0261 62.6373C33.6303 63.7368 36.2423 63.7368 37.8525 62.6373L67.1695 42.6143C68.7857 41.5148 68.7916 39.7247 67.1874 38.6252L39.2897 18.8065C37.6855 17.7071 35.0794 17.7071 33.4633 18.8065L4.14628 38.8296Z" fill="#8F2B25"/>
<path opacity="0.34" d="M67.1874 38.6252L39.2897 18.8065C37.6855 17.7071 35.0794 17.7071 33.4633 18.8065L4.14628 38.8296C2.53014 39.929 2.52418 41.7192 4.12839 42.8187L32.0261 62.6373C33.6303 63.7368 36.2423 63.7368 37.8525 62.6373L67.1696 42.6143C68.7857 41.5148 68.7916 39.7247 67.1874 38.6252ZM66.9728 42.2196L37.6557 62.2427C36.9341 62.736 35.968 63.0109 34.9304 63.0109C33.8987 63.0109 32.9326 62.736 32.2169 62.2497L4.31922 42.431C3.66919 41.987 3.31137 41.4232 3.31734 40.8382C3.31734 40.2533 3.68112 39.6824 4.33711 39.2313L33.6541 19.2083C34.3757 18.7149 35.3418 18.44 36.3795 18.44C37.4172 18.44 38.3773 18.7149 39.0929 19.2012L66.9907 39.0199C67.6407 39.4639 67.9985 40.0277 67.9925 40.6127C67.9925 41.1977 67.6288 41.7685 66.9668 42.2196H66.9728Z" fill="url(#paint0_radial_15112_651)" style="mix-blend-mode:screen"/>
<path d="M68.3861 29.2271C68.3861 29.953 67.9806 30.6789 67.1695 31.2357L37.8525 51.2587C36.2364 52.3582 33.6303 52.3582 32.0261 51.2587L4.12837 31.4401C3.32925 30.8904 2.93565 30.1785 2.92969 29.4596V30.7283C2.93565 31.4471 3.33521 32.159 4.13433 32.7087L32.032 52.5274C33.6362 53.6268 36.2483 53.6268 37.8585 52.5274L67.1755 32.5043C67.9865 31.9475 68.3921 31.2216 68.3921 30.4957V29.2271H68.3861Z" fill="url(#paint1_radial_15112_651)"/>
<path d="M4.14628 27.4502C2.53014 28.5497 2.52418 30.3398 4.12839 31.4393L32.0261 51.2579C33.6303 52.3574 36.2423 52.3574 37.8525 51.2579L67.1695 31.2349C68.7857 30.1354 68.7916 28.3453 67.1874 27.2458L39.2897 7.42714C37.6855 6.32767 35.0794 6.32767 33.4633 7.42714L4.14628 27.4502Z" fill="url(#paint2_linear_15112_651)"/>
<path opacity="0.34" d="M67.1874 27.2458L39.2897 7.42714C37.6855 6.32767 35.0794 6.32767 33.4633 7.42714L4.14628 27.4502C2.53014 28.5497 2.52418 30.3398 4.12839 31.4393L32.0261 51.2579C33.6303 52.3574 36.2423 52.3574 37.8525 51.2579L67.1696 31.2349C68.7857 30.1354 68.7916 28.3453 67.1874 27.2458ZM66.9728 30.8402L37.6557 50.8633C36.9341 51.3566 35.968 51.6315 34.9304 51.6315C33.8987 51.6315 32.9326 51.3566 32.2169 50.8703L4.31922 31.0517C3.66919 30.6076 3.31137 30.0438 3.31734 29.4588C3.31734 28.8739 3.68112 28.303 4.33711 27.8519L33.6541 7.82887C34.3757 7.33552 35.3418 7.06065 36.3795 7.06065C37.4172 7.06065 38.3773 7.33552 39.0929 7.82182L66.9907 27.6405C67.6407 28.0845 67.9985 28.6483 67.9925 29.2333C67.9925 29.8183 67.6288 30.3892 66.9668 30.8402H66.9728Z" fill="url(#paint3_radial_15112_651)" style="mix-blend-mode:screen"/>
</g>
<defs>
<radialGradient id="paint0_radial_15112_651" cx="0" cy="0" r="1" gradientUnits="userSpaceOnUse" gradientTransform="translate(29.1039 4.16808) scale(66.512 78.6051)">
<stop stop-color="white"/>
<stop offset="0.68" stop-color="#4D4D4D"/>
<stop offset="1"/>
</radialGradient>
<radialGradient id="paint1_radial_15112_651" cx="0" cy="0" r="1" gradientUnits="userSpaceOnUse" gradientTransform="translate(-16.8098 -6.19562) scale(175.986 207.983)">
<stop stop-color="white" stop-opacity="0.1"/>
<stop offset="0.35" stop-color="white" stop-opacity="0.41"/>
<stop offset="1" stop-color="white"/>
</radialGradient>
<linearGradient id="paint2_linear_15112_651" x1="18.7988" y1="18.6262" x2="206.288" y2="103.966" gradientUnits="userSpaceOnUse">
<stop stop-color="white" stop-opacity="0.1"/>
<stop offset="0.35" stop-color="white" stop-opacity="0.41"/>
<stop offset="1" stop-color="white"/>
</linearGradient>
<radialGradient id="paint3_radial_15112_651" cx="0" cy="0" r="1" gradientUnits="userSpaceOnUse" gradientTransform="translate(29.1039 -7.21132) scale(66.512 78.6051)">
<stop stop-color="white"/>
<stop offset="0.68" stop-color="#4D4D4D"/>
<stop offset="1"/>
</radialGradient>
<clipPath id="clip0_15112_651">
<rect width="70" height="70" fill="white"/>
</clipPath>
</defs>
</svg>
