<svg width="96" height="72" viewBox="0 0 96 72" fill="none" xmlns="http://www.w3.org/2000/svg">
<path d="M67.4157 72C62.382 72 58.3371 70.1124 55.2809 66.3371C52.2247 62.5618 50.6966 57.618 50.6966 51.5056C50.6966 42.3371 52.5843 34.5168 56.3596 28.0449C60.1348 21.573 64.6292 16.2697 69.8427 12.1348C75.0562 8 79.7304 4.94381 83.8652 2.96628C88.1798 0.988754 90.7865 0 91.6854 0C92.5843 0 93.4832 1.07864 94.382 3.23594C95.4607 5.21347 96 6.92134 96 8.35954C88.809 11.7753 83.6854 15.8202 80.6292 20.4944C77.5731 25.1685 75.8652 30.2022 75.5056 35.5955L87.1011 52.3146C87.1011 58.6067 85.0337 63.4607 80.8989 66.8764C76.9438 70.2921 72.4494 72 67.4157 72ZM16.7191 72C11.6854 72 7.64045 70.1124 4.58427 66.3371C1.52809 62.5618 0 57.618 0 51.5056C0 42.3371 1.88764 34.5168 5.66292 28.0449C9.4382 21.573 13.9326 16.2697 19.1461 12.1348C24.3596 8 29.0337 4.94381 33.1685 2.96628C37.4832 0.988754 40.0899 0 40.9888 0C41.8877 0 42.7865 1.07864 43.6854 3.23594C44.7641 5.21347 45.3034 6.92134 45.3034 8.35954C38.1124 11.7753 32.9888 15.8202 29.9326 20.4944C26.8764 25.1685 25.1685 30.2022 24.809 35.5955L36.4045 52.3146C36.4045 58.6067 34.3371 63.4607 30.2023 66.8764C26.2472 70.2921 21.7528 72 16.7191 72Z" fill="white"/>
</svg>
