<svg width="24" height="24" viewBox="0 0 24 24" fill="none" xmlns="http:/www.w3.org/2000/svg">
<path d="M11.5 15.577V6.927L9.17 9.257L8.462 8.539L12 5L15.539 8.539L14.831 9.258L12.5 6.927V15.577H11.5ZM6.616 19C6.15533 19 5.771 18.846 5.463 18.538C5.155 18.23 5.00067 17.8453 5 17.384V14.961H6V17.384C6 17.538 6.064 17.6793 6.192 17.808C6.32 17.9367 6.461 18.0007 6.615 18H17.385C17.5383 18 17.6793 17.936 17.808 17.808C17.9367 17.68 18.0007 17.5387 18 17.384V14.961H19V17.384C19 17.8447 18.846 18.229 18.538 18.537C18.23 18.845 17.8453 18.9993 17.384 19H6.616Z" fill="#FEA800"/>
</svg>

