<svg width="33" height="20" viewBox="0 0 33 20" fill="none" xmlns="http:/www.w3.org/2000/svg">
<path d="M13.3943 19.6875C13.2413 19.5359 13.1402 19.3323 12.9885 19.1793C11.774 17.9579 9.90227 17.3486 7.37342 17.3486C4.89239 17.3486 3.02068 17.9579 1.80613 19.1793C1.65448 19.3323 1.55338 19.4839 1.40173 19.6875H13.3943ZM17.329 19.6274V0.504579H21.3716V2.87632C21.9263 1.91724 22.5834 1.21091 23.3922 0.706777C24.2405 0.231679 25.1989 -0.0119144 26.1711 0.000448176C28.2422 0.000448176 29.8598 0.706777 31.0211 2.06889C32.1824 3.431 32.789 5.34778 32.789 7.77007C32.789 10.1418 32.1824 12.008 31.0211 13.4207C29.8598 14.8334 28.2928 15.5397 26.3733 15.5397C25.2106 15.5397 24.2502 15.3389 23.4428 14.8839C22.634 14.4809 21.9263 13.7746 21.3716 12.866C21.4221 13.2199 21.4713 13.6229 21.4713 14.0765C21.4713 14.4809 21.5219 14.985 21.5219 15.5397V19.5768H17.329V19.6274ZM21.168 7.77007C21.168 9.08163 21.4713 10.0913 22.1285 10.8481C22.7856 11.5545 23.6955 11.9575 24.8062 11.9575C25.9675 11.9575 26.8774 11.605 27.484 10.8481C28.1398 10.1418 28.4444 9.08163 28.4444 7.77007C28.4444 6.45851 28.1411 5.44888 27.484 4.69201C26.8282 3.93513 25.9183 3.58264 24.7557 3.58264C23.645 3.58264 22.7351 3.98568 22.0779 4.74392C21.4713 5.3997 21.1694 6.45851 21.1694 7.77007H21.168ZM10.5608 0.555129V8.17447C10.5608 9.43548 10.308 10.344 9.80254 10.8987C9.29704 11.4534 8.48961 11.7567 7.37752 11.7567C6.26679 11.7567 5.458 11.5039 4.9525 10.9492C4.44701 10.3932 4.19426 9.48603 4.19426 8.17447V0.553762H0V8.1731C0 10.4424 0.454947 12.1078 1.36348 13.3196C1.51512 13.4699 1.61622 13.6721 1.76787 13.8237C2.98107 15.0342 4.85004 15.6408 7.37615 15.6408C9.85172 15.6408 11.7207 15.0342 12.9339 13.8237C13.0842 13.6721 13.1866 13.5204 13.3383 13.3182C14.2468 12.1078 14.7018 10.3918 14.7018 8.1731V0.553762L10.5608 0.555129Z" fill="white"/>
</svg>

