<svg width="35" height="34" viewBox="0 0 35 34" fill="none" xmlns="http://www.w3.org/2000/svg">
<path d="M31.0096 8.94255C31.3522 8.36014 32.1691 8.3733 32.4488 8.99044C33.4983 11.3059 34.0479 13.8358 34.0519 16.4041C34.0566 19.4783 33.2794 22.5001 31.7979 25.1673C30.3164 27.8346 28.1825 30.054 25.6094 31.6039C23.0363 33.1537 20.114 33.9797 17.1346 33.9993C14.1552 34.019 11.223 33.2315 8.6309 31.7157C6.0388 30.1999 3.8776 28.0087 2.36323 25.3612C0.848862 22.7137 0.0343457 19.7024 0.00106262 16.6284C-0.0268951 14.0462 0.497204 11.4956 1.529 9.15603C1.79855 8.54483 2.6007 8.51154 2.95901 9.0721L10.1912 20.3866C10.8673 21.4443 12.3733 21.4381 13.0411 20.3748L16.5045 14.8614C16.8447 14.3198 17.6114 14.3155 17.9572 14.8532L21.476 20.3241C22.1659 21.3968 23.7026 21.3647 24.35 20.2642L31.0096 8.94255Z" fill="url(#paint0_linear_12717_2924)"/>
<path fill-rule="evenodd" clip-rule="evenodd" d="M12.5957 11.5839C14.47 11.5584 16.0407 11.9175 17.3618 13.5818C18.375 11.8541 18.9221 10.7148 20.5875 8.99045C21.8036 7.84855 22.9329 7.41421 24.35 7.24048C21.476 9.93302 19.7188 12.3653 17.3618 16.8362C16.5244 14.991 14.2255 12.735 12.5957 11.5839Z" fill="url(#paint1_linear_12717_2924)"/>
<path d="M10.82 3.24985C10.8485 3.2343 10.8846 3.24433 10.9002 3.2724C10.9162 3.30024 10.906 3.33531 10.8778 3.35075C10.8436 3.3694 10.8106 3.38761 10.7786 3.40538C10.7784 3.40546 10.7783 3.4056 10.7781 3.40568C10.4214 3.60431 10.1665 3.76186 9.9562 3.93275C9.84047 4.02633 9.487 4.31401 8.97336 4.60241C8.82607 4.68439 8.7091 4.74997 8.62114 4.79786C8.6109 4.80359 8.60095 4.80912 8.59135 4.81449C8.59112 4.81461 8.5909 4.81474 8.59068 4.81486C8.51228 4.85886 8.455 4.89069 8.39871 4.92678C8.39749 4.9276 8.39623 4.9284 8.39501 4.92922C8.24494 5.0263 8.11617 5.18141 7.98594 5.29203C7.96235 5.31195 7.92691 5.30795 7.90552 5.28405C7.88419 5.2601 7.88521 5.22508 7.90907 5.20488C8.04424 5.09002 8.17775 4.93164 8.32804 4.83423C8.33015 4.83286 8.33229 4.83146 8.3344 4.83009C8.39211 4.79335 8.45391 4.75853 8.53251 4.7144C8.54251 4.70879 8.5529 4.70304 8.56348 4.6971C8.64952 4.65073 8.76924 4.58313 8.91445 4.50261C9.41963 4.21883 9.76713 3.93568 9.8808 3.84367C10.0984 3.66687 10.3604 3.50508 10.7178 3.30603C10.7508 3.2877 10.7849 3.26905 10.82 3.24985ZM20.1193 0.963948C20.1245 0.932289 20.1561 0.911827 20.1898 0.918338C20.5643 0.989662 21.0867 1.14131 21.5321 1.298C21.7509 1.37418 21.9504 1.44955 22.1107 1.51009C22.3615 1.605 22.5031 1.69049 22.6485 1.77835C22.65 1.77927 22.6516 1.78024 22.6531 1.78116C22.7962 1.86868 22.9368 1.95572 23.1807 2.06835C23.4234 2.18048 23.7725 2.32372 24.1146 2.47965C24.1149 2.47978 24.1151 2.47996 24.1154 2.4801C24.4597 2.63645 24.8276 2.75468 25.0652 2.90116C25.8826 3.40685 26.3162 3.83142 26.518 4.05708C26.8643 4.45095 27.4084 4.73238 27.6912 5.19571C27.7071 5.25459 27.5866 5.25881 27.5231 5.16562C27.5211 5.16279 27.5191 5.15988 27.517 5.15697C27.4981 5.13047 27.472 5.09926 27.4442 5.06834C27.4028 5.02617 27.357 4.98542 27.329 4.96064C27.2466 4.88033 26.6309 4.35081 26.4311 4.13411C26.2398 3.92089 25.7404 3.62167 24.9316 3.121C24.7025 2.97975 24.4139 2.74379 24.0689 2.58691C24.068 2.58649 24.0671 2.58601 24.0661 2.58558C23.729 2.43192 23.3789 2.28812 23.1338 2.17487C22.8828 2.05888 22.7371 1.96848 22.5928 1.88029C22.5914 1.87943 22.59 1.87856 22.5886 1.8777C22.4452 1.79113 22.3117 1.71042 22.0718 1.61957C21.9091 1.55815 21.7085 1.48257 21.4901 1.4066C21.0496 1.25183 20.5386 1.10334 20.1704 1.03307C20.137 1.02656 20.1141 0.995655 20.1193 0.963948ZM18.6273 0.617031C18.6613 0.614054 18.6923 0.637939 18.6964 0.670033C18.7004 0.702095 18.6763 0.730302 18.6426 0.733237C18.6247 0.734793 18.5953 0.737953 18.5558 0.742403C18.3426 0.766106 17.8453 0.828689 17.2639 0.89801C17.0633 0.921491 16.8572 0.945496 16.6477 0.966905C16.5777 0.974013 16.5153 0.981326 16.4562 0.988638C16.2044 1.02137 16.0062 1.11486 15.5295 1.17078C13.5248 1.41033 11.5026 2.01972 9.81087 3.17852C9.32146 3.51375 8.84865 3.84578 8.37735 4.20944C7.99087 4.49745 7.27131 5.06401 7.13217 5.21005C7.11797 5.2239 7.10461 5.22781 7.09203 5.22528C7.07061 5.23203 7.06336 5.21831 7.05108 5.20791C7.03957 5.19677 7.02697 5.18917 7.03304 5.16806C7.03077 5.15572 7.03539 5.14216 7.05012 5.12778C7.1916 4.97938 7.91382 4.41019 8.30188 4.12073C8.77539 3.75508 9.25091 3.421 9.74264 3.08404C11.4418 1.91835 13.4444 1.16169 15.4994 0.915307C15.982 0.858797 16.1865 0.906459 16.4386 0.873541C16.4984 0.866133 16.5616 0.858618 16.6328 0.851365C16.8483 0.829326 17.0594 0.804532 17.2647 0.780399C17.8348 0.712153 18.322 0.650692 18.5362 0.626641C18.5774 0.622005 18.6083 0.618694 18.6273 0.617031ZM26.4858 4.85567C26.5059 4.83066 26.5429 4.82757 26.5675 4.84835C26.6245 4.89657 26.6854 4.94867 26.7434 4.99922C26.7676 5.0203 26.7697 5.05675 26.7491 5.08128C26.7283 5.10578 26.6928 5.10927 26.6689 5.08837C26.6112 5.03815 26.551 4.98654 26.4943 4.93861C26.4699 4.91799 26.4657 4.88067 26.4858 4.85567ZM18.7033 1.20737C18.8771 1.18428 19.1065 1.21987 19.3017 1.2705C19.4969 1.32085 19.6748 1.38932 19.7542 1.42633C19.8331 1.4627 19.9211 1.48727 20.0307 1.51511C20.0556 1.52145 20.0815 1.52794 20.1081 1.5347C20.1962 1.55706 20.2935 1.58267 20.3979 1.61757C20.7857 1.74748 21.0362 1.8246 21.2182 1.87682C21.2554 1.88758 21.29 1.89743 21.3223 1.90675L21.3225 1.90683C21.4439 1.94196 21.5375 1.97058 21.6159 2.01099C21.7557 2.08319 21.8679 2.14515 21.9983 2.23674C22.1755 2.36162 22.4579 2.46659 22.6508 2.50649C22.6615 2.50867 22.6722 2.51078 22.6834 2.51314C22.8275 2.54379 22.9987 2.57972 23.2507 2.66852C23.4584 2.74173 23.6294 2.82807 23.7774 2.91025C23.8196 2.93371 23.8593 2.95662 23.8972 2.97856C23.9954 3.03523 24.0825 3.08682 24.1661 3.12921C24.6893 3.39629 24.9627 3.59482 25.1274 3.735C25.249 3.84055 25.3123 3.91956 25.3536 3.9737C25.3663 3.99024 25.3774 4.00493 25.3883 4.0179C25.4821 4.13128 25.5901 4.22776 25.7041 4.33562C25.7313 4.3609 25.7592 4.38709 25.7877 4.41442C25.8823 4.50542 25.96 4.55804 26.0277 4.5976C26.0567 4.61447 26.0826 4.62812 26.1068 4.64085C26.1073 4.64106 26.1077 4.6413 26.1082 4.64151C26.1116 4.64329 26.1149 4.64509 26.1182 4.64684C26.1207 4.64815 26.1233 4.64936 26.1258 4.65068C26.127 4.65087 26.128 4.65117 26.1288 4.65134C26.1294 4.65148 26.1299 4.65156 26.1302 4.65164H26.1304C26.136 4.65301 26.1401 4.655 26.141 4.65541C26.1425 4.65611 26.1437 4.6569 26.1443 4.65726C26.1477 4.65915 26.1519 4.66191 26.1547 4.66376C26.162 4.66878 26.1728 4.67616 26.1932 4.69089C26.2111 4.70231 26.2289 4.71222 26.251 4.72445C26.2524 4.72522 26.2538 4.72598 26.2552 4.72675C26.2767 4.73866 26.3016 4.75259 26.3316 4.77066C26.3589 4.78711 26.3675 4.8227 26.3511 4.85042C26.3348 4.87813 26.3001 4.88768 26.2732 4.87149C26.2452 4.85469 26.2222 4.84184 26.2009 4.83009C26.1996 4.82936 26.1982 4.82861 26.1969 4.82787C26.1747 4.8156 26.1535 4.80382 26.1314 4.78965C26.124 4.78491 26.1164 4.7799 26.1094 4.77509C26.0971 4.7677 26.0827 4.75991 26.0652 4.7507C26.0617 4.74885 26.0581 4.74688 26.0544 4.74493C26.0304 4.7324 26.0023 4.71769 25.9711 4.69954C25.8967 4.65604 25.8111 4.59788 25.7086 4.49929C25.6815 4.47336 25.6544 4.44795 25.6283 4.42359C25.5147 4.31606 25.4008 4.21402 25.301 4.09382C25.2868 4.07702 25.2737 4.0599 25.2596 4.04163C25.2177 3.98763 25.1655 3.92147 25.053 3.82393C24.8965 3.69095 24.6324 3.49808 24.1156 3.2341C24.0286 3.18995 23.936 3.13509 23.8372 3.07805C23.8003 3.0567 23.7622 3.03489 23.7228 3.013C23.5782 2.93266 23.4134 2.84952 23.2146 2.77941C22.9692 2.69284 22.8047 2.65842 22.6623 2.62809C22.6574 2.62709 22.6525 2.62605 22.6475 2.62506C22.6415 2.6238 22.6354 2.62257 22.6295 2.62136C22.4256 2.57919 22.1274 2.46927 21.9326 2.3321C21.8083 2.24498 21.7025 2.18626 21.5642 2.11485C21.4964 2.07992 21.4171 2.05561 21.2987 2.02119C21.2654 2.01155 21.2289 2.00096 21.1882 1.98918C21.0043 1.93643 20.7519 1.85878 20.3631 1.72845C20.2628 1.6949 20.1704 1.67048 20.0836 1.6484C20.0566 1.64154 20.0301 1.63491 20.0041 1.62829C19.8947 1.60049 19.7973 1.57384 19.7067 1.53212C19.6334 1.49797 19.463 1.43208 19.2746 1.38346C19.0835 1.33393 18.8727 1.30297 18.7214 1.32306C18.7056 1.32512 18.6896 1.32712 18.6737 1.3292C18.5367 1.3471 18.3943 1.36745 18.2818 1.41473C18.0049 1.58167 17.6375 1.60983 17.259 1.60951C16.93 1.60859 16.5999 1.58645 16.3312 1.5951C16.3237 1.59533 16.3161 1.59552 16.3086 1.59576C15.6415 1.61827 15.166 1.7072 15.0014 1.73659C14.9938 1.73798 14.9869 1.73928 14.9807 1.74043C14.9751 1.74145 14.9701 1.74242 14.9657 1.74324C14.8993 1.75549 14.8416 1.77059 14.7815 1.7867C14.7782 1.78759 14.775 1.78848 14.7717 1.78937C14.7084 1.80641 14.6416 1.82442 14.5609 1.84126C14.263 1.90354 14.0232 1.97047 13.8187 2.03257C13.7807 2.04411 13.7447 2.0552 13.7083 2.06665C13.7082 2.06668 13.708 2.06677 13.7079 2.0668C13.5487 2.11693 13.41 2.16378 13.2788 2.20599C13.034 2.28512 12.8796 2.34871 12.7547 2.40285C12.716 2.41971 12.6806 2.43563 12.6474 2.45075C12.5756 2.48344 12.5136 2.51238 12.449 2.5396C12.3255 2.59162 12.2142 2.64613 12.1071 2.70016C12.0976 2.70498 12.088 2.70976 12.0785 2.71458C11.9622 2.77353 11.8445 2.83436 11.7216 2.89133C11.693 2.90456 11.6584 2.89189 11.6442 2.86309C11.6301 2.83429 11.6418 2.80003 11.6707 2.78665C11.7911 2.73084 11.9064 2.67128 12.024 2.61168C12.0336 2.6068 12.0433 2.6018 12.053 2.59689C12.1606 2.54255 12.2748 2.48683 12.4018 2.4333C12.4645 2.40683 12.5236 2.37929 12.5945 2.34696C12.6283 2.33154 12.6649 2.31499 12.706 2.29706C12.8342 2.24152 12.9916 2.17656 13.241 2.09592C13.3717 2.05382 13.5097 2.00722 13.6702 1.95665C13.7074 1.94495 13.7439 1.93363 13.7827 1.92183C13.9894 1.85902 14.2327 1.79109 14.5349 1.72786C14.6117 1.71182 14.6759 1.69449 14.7394 1.67737C14.743 1.67643 14.7465 1.67551 14.7501 1.67456C14.8102 1.65844 14.8716 1.64231 14.9423 1.62925C14.9517 1.62751 14.9639 1.62534 14.9784 1.62267C15.1448 1.59294 15.6266 1.50263 16.3024 1.4797C16.3044 1.47966 16.3065 1.47961 16.3086 1.47956C16.7612 1.46587 17.0123 1.47587 17.2062 1.44674C17.2248 1.44403 17.2427 1.44165 17.2602 1.43949C17.3869 1.42388 17.4849 1.42142 17.5668 1.42145C17.5845 1.42147 17.6013 1.42153 17.6173 1.42168C17.6864 1.42233 17.7409 1.42329 17.7955 1.41783C17.9633 1.40163 18.085 1.3698 18.2352 1.30702C18.3615 1.25376 18.519 1.23121 18.6551 1.21358C18.6553 1.21356 18.6555 1.21353 18.6557 1.21351C18.6718 1.21141 18.6878 1.2094 18.7033 1.20737ZM9.36351 2.4041C9.39289 2.38419 9.43226 2.38929 9.45103 2.41541C9.46978 2.44154 9.46106 2.47873 9.43189 2.4985C9.27692 2.60358 9.17582 2.67677 9.0886 2.73971C8.93211 2.85356 8.86348 2.90592 8.74562 2.98491C8.45317 3.18137 8.17012 3.38721 7.92585 3.57533C7.51597 3.89045 7.20237 4.16436 7.03075 4.31204C7.0058 4.33337 6.96329 4.336 6.94249 4.31152C6.92042 4.28827 6.92868 4.2465 6.95358 4.22518C7.12565 4.07708 7.43938 3.80301 7.85037 3.48677C8.09683 3.29684 8.38225 3.08893 8.67872 2.8897C8.79362 2.81267 8.85927 2.76275 9.01284 2.65086C9.10009 2.58777 9.20382 2.51246 9.36351 2.4041ZM18.4708 0.012789C18.8699 -0.0242022 19.2839 0.0223476 19.7996 0.109997C19.973 0.139703 20.152 0.173223 20.3521 0.212379C21.4798 0.326143 22.5618 0.728709 23.5106 1.29919C23.7681 1.41772 24.1295 1.59756 24.4765 1.78789C24.4803 1.79005 24.4842 1.79223 24.4881 1.79439C24.8366 1.98486 25.1685 2.1834 25.4096 2.33196C26.2566 2.85557 26.7438 3.24678 26.9563 3.48056C27.1542 3.70152 27.2103 3.74726 27.3087 3.82482C27.3112 3.82689 27.3138 3.82897 27.3163 3.83103C27.3165 3.83109 27.3168 3.83112 27.317 3.83118C27.3211 3.83255 27.3244 3.83406 27.326 3.83487C27.3293 3.83652 27.3318 3.83812 27.3327 3.83872C27.3348 3.84008 27.3365 3.84135 27.3372 3.84182C27.3396 3.84368 27.3424 3.8459 27.3442 3.84737C27.3609 3.86133 27.4084 3.90366 27.4463 3.94043C27.4872 3.97975 27.5133 4.00917 27.5398 4.04001C27.5425 4.04313 27.5452 4.04628 27.5478 4.0494C27.572 4.07744 27.5948 4.10517 27.6373 4.15045C27.662 4.17711 27.6618 4.21546 27.638 4.23701C27.6142 4.25849 27.576 4.25505 27.5512 4.22844C27.5062 4.18073 27.4842 4.15319 27.4592 4.12443C27.4566 4.12133 27.4539 4.11822 27.4512 4.11511C27.4257 4.08557 27.4024 4.05962 27.3663 4.02485C27.3168 3.9804 27.2778 3.94903 27.2408 3.91959C27.14 3.84009 27.0737 3.78599 26.8688 3.55692C26.6682 3.33676 26.1976 2.95614 25.3506 2.43205C25.1105 2.28411 24.7804 2.08658 24.4344 1.89744C24.4304 1.89527 24.4264 1.8931 24.4224 1.89094C24.0775 1.70166 23.719 1.52308 23.4638 1.40556C22.4542 0.940393 21.4083 0.650008 20.333 0.327181C20.1278 0.286987 19.9464 0.253187 19.7724 0.223468C19.2653 0.137699 18.8716 0.0936729 18.489 0.128847C18.4057 0.136951 18.1926 0.130095 17.8785 0.130769C17.788 0.131093 17.6886 0.132057 17.5806 0.134465C17.4836 0.136632 17.3796 0.139942 17.269 0.144888C17.0773 0.153429 16.87 0.16712 16.6493 0.188429C16.5749 0.195532 16.5087 0.202872 16.4459 0.210236C16.1789 0.243277 15.966 0.267887 15.4579 0.326294C14.8299 0.391755 13.7846 0.586915 13.2365 0.732719C12.9592 0.802415 12.8069 0.842441 12.6945 0.870511C12.6636 0.87828 12.6364 0.884942 12.6115 0.891209C12.5466 0.9076 12.4964 0.920623 12.4319 0.940441C11.9631 1.08696 11.6508 1.22499 11.1515 1.48155C11.1205 1.49763 11.0827 1.48797 11.0668 1.45997C11.051 1.43197 11.0633 1.39607 11.0945 1.37984C11.5982 1.12087 11.9174 0.979523 12.3962 0.829853C12.4641 0.808991 12.5183 0.794987 12.5849 0.778181C12.6096 0.771956 12.636 0.765357 12.6656 0.757927C12.7771 0.730077 12.9287 0.690214 13.2067 0.620283C13.7581 0.473549 14.8105 0.276959 15.4418 0.211049C15.9491 0.152644 16.1599 0.128329 16.428 0.0950646C16.4914 0.0876073 16.5585 0.080135 16.634 0.0728879C16.8611 0.0509299 17.0735 0.0369086 17.2698 0.0282388C17.3779 0.023444 17.4797 0.0201807 17.5748 0.0180375C17.6835 0.0155879 17.7836 0.0146219 17.8743 0.0142674C18.197 0.0135765 18.3994 0.019977 18.4708 0.012789Z" fill="url(#paint2_linear_12717_2924)"/>
<path d="M14.3167 20.149C14.9911 19.4024 17.3503 15.526 17.3503 15.526C17.3503 15.526 20.0038 19.605 20.7682 20.7976C21.3186 21.4702 22.7862 21.7183 22.7862 21.7183C22.7862 21.7183 21.7252 22.1927 20.5248 21.7183C19.3244 21.244 17.421 17.4347 17.421 17.4347C17.421 17.4347 16.2824 19.8001 15.2389 20.9413C13.7236 22.5985 12.1683 22.5809 12.1683 22.5809C12.1683 22.5809 13.4183 21.3032 14.3167 20.149Z" fill="url(#paint3_linear_12717_2924)"/>
<path d="M20.288 10.2212C19.7702 10.7944 17.4155 14.7561 17.4155 14.7561C17.4155 14.7561 16.3782 13.5858 15.5404 12.9741C14.7025 12.3623 13.0003 11.5247 13.0003 11.5247C13.0003 11.5247 14.4498 11.5247 15.5404 12.0697C16.6309 12.6148 17.3223 13.5056 17.3223 13.5056C17.3223 13.5056 19.1443 10.3006 20.288 9.21004C21.8817 7.46705 23.6127 7.3351 23.6127 7.3351C23.6127 7.3351 20.9777 9.33512 20.288 10.2212Z" fill="url(#paint4_linear_12717_2924)"/>
<path d="M20.288 10.2212C19.7702 10.7944 17.4155 14.7561 17.4155 14.7561C17.4155 14.7561 16.3782 13.5858 15.5404 12.9741C14.7025 12.3623 13.0003 11.5247 13.0003 11.5247C13.0003 11.5247 14.4498 11.5247 15.5404 12.0697C16.6309 12.6148 17.3223 13.5056 17.3223 13.5056C17.3223 13.5056 19.1443 10.3006 20.288 9.21004C21.8817 7.46705 23.6127 7.3351 23.6127 7.3351C23.6127 7.3351 20.9777 9.33512 20.288 10.2212Z" fill="url(#paint5_linear_12717_2924)"/>
<defs>
<linearGradient id="paint0_linear_12717_2924" x1="8.8135" y1="9.81238" x2="21.0829" y2="34.3709" gradientUnits="userSpaceOnUse">
<stop stop-color="#537993"/>
<stop offset="0.25" stop-color="#F77847"/>
<stop offset="0.5" stop-color="#FEA800"/>
<stop offset="1" stop-color="#EADDBF"/>
</linearGradient>
<linearGradient id="paint1_linear_12717_2924" x1="8.8135" y1="9.81238" x2="21.0829" y2="34.3709" gradientUnits="userSpaceOnUse">
<stop stop-color="#537993"/>
<stop offset="0.25" stop-color="#F77847"/>
<stop offset="0.5" stop-color="#FEA800"/>
<stop offset="1" stop-color="#EADDBF"/>
</linearGradient>
<linearGradient id="paint2_linear_12717_2924" x1="12.3037" y1="0.509857" x2="13.2664" y2="6.43715" gradientUnits="userSpaceOnUse">
<stop stop-color="#537993"/>
<stop offset="0.25" stop-color="#F77847"/>
<stop offset="0.5" stop-color="#FEA800"/>
<stop offset="1" stop-color="#EADDBF"/>
</linearGradient>
<linearGradient id="paint3_linear_12717_2924" x1="17.1955" y1="15.5295" x2="17.5833" y2="21.4841" gradientUnits="userSpaceOnUse">
<stop offset="0.1875"/>
<stop offset="1" stop-color="#57002A" stop-opacity="0"/>
</linearGradient>
<linearGradient id="paint4_linear_12717_2924" x1="18.5576" y1="14.729" x2="18.1398" y2="8.48208" gradientUnits="userSpaceOnUse">
<stop offset="0.1875"/>
<stop offset="1" stop-color="#57002A" stop-opacity="0"/>
</linearGradient>
<linearGradient id="paint5_linear_12717_2924" x1="19.2818" y1="14.7118" x2="19.0864" y2="6.53748" gradientUnits="userSpaceOnUse">
<stop stop-color="#537993"/>
<stop offset="1" stop-color="#FBB11F"/>
</linearGradient>
</defs>
</svg>
