<svg width="1234" height="412" viewBox="0 0 1234 412" fill="none" xmlns="http://www.w3.org/2000/svg">
<path d="M1036.75 137.202L1036.9 137.418L1084.51 206.566L1084.51 206.572C1089.3 213.728 1092.82 221.2 1095.05 228.987H1095.05C1095.06 229.021 1095.07 229.055 1095.08 229.089H1119.3C1119.31 229.054 1119.32 229.018 1119.33 228.982L1119.33 228.969C1121.88 221.195 1125.39 213.733 1129.86 206.584L1129.86 206.576L1129.87 206.568L1177.01 137.42L1177.16 137.202H1232.17L1231.64 137.983L1171.65 226.152C1165.32 235.702 1162.21 244.114 1162.21 251.401C1162.21 259.303 1165.64 268.331 1172.59 278.5L1231.64 364.818L1232.17 365.6H1177.63L1177.49 365.385L1129.87 296.702L1129.86 296.69C1125.4 289.85 1121.89 282.697 1119.33 275.231L1119.33 275.219L1119.33 275.208C1119.01 274.091 1118.71 272.974 1118.44 271.857H1095.94C1095.67 272.974 1095.37 274.091 1095.05 275.208L1095.05 275.212C1092.81 282.692 1089.3 289.857 1084.51 296.704L1036.89 365.385L1036.75 365.6H982.208L982.743 364.818L1041.78 278.5C1048.74 268.331 1052.17 259.303 1052.17 251.401C1052.17 244.114 1049.05 235.703 1042.73 226.153V226.152L982.743 137.983L982.211 137.202H1036.75Z" fill="url(#paint0_linear_13667_833)" fill-opacity="0.9" stroke="url(#paint1_linear_13667_833)"/>
<path d="M773.146 23.5V160.757C780.691 152.587 789.488 145.688 799.538 140.065L801.037 139.229C816.574 130.719 833.459 126.465 851.684 126.465C875.57 126.465 896.612 131.963 914.793 142.973C933.278 153.652 947.782 168.38 958.299 187.146C968.821 205.922 974.075 227.439 974.075 251.684C974.075 274.326 968.657 295.038 957.819 313.809C946.984 332.574 932.163 347.621 913.363 358.943C894.552 370.273 873.353 375.935 849.779 375.935C826.211 375.935 805.016 370.598 786.206 359.917L786.201 359.914C767.4 348.914 752.42 334.029 741.267 315.265L741.262 315.256C730.424 296.162 725.008 274.968 725.008 251.684V23.5H773.146ZM849.779 172.905C835.263 172.905 822.18 176.428 810.519 183.468C799.169 190.511 790.023 200.113 783.08 212.287L783.081 212.288C776.458 224.135 773.146 237.102 773.146 251.2C773.146 265.622 776.459 278.75 783.081 290.595H783.08C790.021 302.444 799.167 312.049 810.519 319.415L811.616 320.064C822.999 326.671 835.716 329.978 849.779 329.979C864.296 329.979 877.217 326.455 888.559 319.418C900.232 312.05 909.378 302.444 916.002 290.595C922.623 278.75 925.937 265.622 925.938 251.2C925.938 237.102 922.625 224.135 916.002 212.288L915.999 212.283C909.375 200.114 900.232 190.511 888.564 183.468L888.559 183.465C877.217 176.428 864.296 172.905 849.779 172.905Z" fill="url(#paint2_linear_13667_833)" fill-opacity="0.9" stroke="url(#paint3_linear_13667_833)"/>
<path d="M576.842 126.863C600.949 126.863 621.666 132.179 638.972 142.833H638.971C656.585 153.156 670.127 167.352 679.587 185.416H679.586C689.37 203.155 694.258 222.986 694.258 244.896V264.664H503.516C504.75 273.541 507.257 281.81 511.037 289.472C517.491 302.555 526.846 313.083 539.108 321.061L540.263 321.767C552.259 328.948 566.232 332.546 582.2 332.546C597.065 332.546 610.461 329.351 622.398 322.97L622.403 322.969C634.653 316.594 644.326 307.032 651.426 294.267L651.66 293.846L652.089 294.064L689.113 312.85L689.561 313.078L689.331 313.525C678.897 333.836 664.38 349.324 645.778 359.972C627.184 370.617 606.149 375.934 582.688 375.934C558.579 375.934 536.897 370.618 517.654 359.976L517.648 359.973C498.413 349.013 483.247 334.18 472.16 315.478L472.158 315.474C461.067 296.444 455.527 274.84 455.527 250.677C455.527 228.12 460.58 207.485 470.689 188.782C480.799 169.758 494.989 154.759 513.254 143.794C531.528 132.502 552.73 126.863 576.842 126.863ZM576.354 170.734C563.111 170.734 551.34 173.446 541.029 178.861L541.03 178.862C531.037 184.281 522.98 191.769 516.855 201.332L516.854 201.331C511.143 210.747 507.304 221.247 505.335 232.836H644.999C644.286 220.606 640.912 209.787 634.879 200.368L634.872 200.358C629.077 190.808 621.031 183.487 610.721 178.389L610.715 178.386C600.727 173.289 589.278 170.734 576.354 170.734Z" fill="url(#paint4_linear_13667_833)" fill-opacity="0.9" stroke="url(#paint5_linear_13667_833)"/>
<path d="M50.4551 26.4685L50.5342 26.8728L106.528 314.972C107.473 318.552 108.412 321.3 109.34 323.232C110.526 324.746 111.97 325.474 113.7 325.474C115.445 325.474 116.9 324.734 118.092 323.195L118.108 323.174L118.128 323.154C119.616 321.616 120.711 318.936 121.344 315.013L121.353 314.959L121.373 314.908L174.484 182.068C177.687 166.542 183.142 155.229 190.903 148.211C198.973 140.873 208.506 137.2 219.478 137.2C230.758 137.2 240.291 140.866 248.045 148.204L248.796 148.875C256.475 155.92 261.841 166.842 264.946 181.567L319.974 314.902L319.984 314.927L319.991 314.954C320.936 318.21 321.877 320.802 322.81 322.74C323.981 324.23 325.575 324.98 327.648 324.98C329.386 324.98 330.656 324.249 331.523 322.756L331.529 322.746L331.536 322.736C332.766 320.829 333.706 318.257 334.337 314.998L386.027 26.8806L386.102 26.4685H435.943L435.831 27.0613L378.874 327.552V327.553C375.989 342.462 370.37 354.264 361.99 362.924C353.905 371.278 343.238 375.441 330.041 375.441C317.171 375.441 306.36 371.614 297.643 363.94L297.635 363.933L297.628 363.927C289.25 355.935 283.154 344.31 279.31 329.101L223.801 192.791L223.777 192.732L223.769 192.671C223.452 190.379 222.835 189.092 222.066 188.562L221.983 188.506L221.93 188.422C221.392 187.589 220.601 187.167 219.478 187.167C218.706 187.167 217.87 187.563 216.966 188.498C216.709 188.763 216.419 189.234 216.108 189.956C215.802 190.669 215.489 191.594 215.174 192.735L215.167 192.76L215.157 192.783L161.086 332.053C158.193 345.968 152.247 356.779 143.221 364.441L143.22 364.44C134.515 372.1 124.349 375.935 112.743 375.935C100.188 375.935 89.3821 372.107 80.3516 364.441L80.3438 364.434L80.3369 364.427C71.628 356.428 65.6845 345.115 62.4775 330.534L62.4756 330.526L0.732422 27.0681L0.610352 26.4685H50.4551Z" fill="url(#paint6_linear_13667_833)" fill-opacity="0.9" stroke="url(#paint7_linear_13667_833)"/>
<defs>
<linearGradient id="paint0_linear_13667_833" x1="1047.36" y1="159.558" x2="1160.81" y2="354.228" gradientUnits="userSpaceOnUse">
<stop stop-color="#537993" stop-opacity="0.2"/>
<stop offset="0.25" stop-color="#F77847" stop-opacity="0.1"/>
<stop offset="0.5" stop-color="#FEA800" stop-opacity="0.1"/>
<stop offset="1" stop-color="#EADDBF" stop-opacity="0.1"/>
</linearGradient>
<linearGradient id="paint1_linear_13667_833" x1="1047.36" y1="159.558" x2="1160.81" y2="354.228" gradientUnits="userSpaceOnUse">
<stop stop-color="#537993" stop-opacity="0.5"/>
<stop offset="0.25" stop-color="#F77847"/>
<stop offset="0.5" stop-color="#FEA800" stop-opacity="0.5"/>
<stop offset="1" stop-color="#EADDBF"/>
</linearGradient>
<linearGradient id="paint2_linear_13667_833" x1="789.714" y1="57.7773" x2="990.134" y2="280.301" gradientUnits="userSpaceOnUse">
<stop stop-color="#537993" stop-opacity="0.2"/>
<stop offset="0.25" stop-color="#F77847" stop-opacity="0.1"/>
<stop offset="0.5" stop-color="#FEA800" stop-opacity="0.1"/>
<stop offset="1" stop-color="#EADDBF" stop-opacity="0.1"/>
</linearGradient>
<linearGradient id="paint3_linear_13667_833" x1="789.714" y1="57.7773" x2="990.134" y2="280.301" gradientUnits="userSpaceOnUse">
<stop stop-color="#537993" stop-opacity="0.5"/>
<stop offset="0.25" stop-color="#F77847"/>
<stop offset="0.5" stop-color="#FEA800" stop-opacity="0.5"/>
<stop offset="1" stop-color="#EADDBF"/>
</linearGradient>
<linearGradient id="paint4_linear_13667_833" x1="517.558" y1="151.206" x2="648.615" y2="348.757" gradientUnits="userSpaceOnUse">
<stop stop-color="#537993" stop-opacity="0.2"/>
<stop offset="0.25" stop-color="#F77847" stop-opacity="0.1"/>
<stop offset="0.5" stop-color="#FEA800" stop-opacity="0.1"/>
<stop offset="1" stop-color="#EADDBF" stop-opacity="0.1"/>
</linearGradient>
<linearGradient id="paint5_linear_13667_833" x1="517.558" y1="151.206" x2="648.615" y2="348.757" gradientUnits="userSpaceOnUse">
<stop stop-color="#537993" stop-opacity="0.5"/>
<stop offset="0.25" stop-color="#F77847"/>
<stop offset="0.5" stop-color="#FEA800" stop-opacity="0.5"/>
<stop offset="1" stop-color="#EADDBF"/>
</linearGradient>
<linearGradient id="paint6_linear_13667_833" x1="113.583" y1="60.4606" x2="275.386" y2="377.521" gradientUnits="userSpaceOnUse">
<stop stop-color="#537993" stop-opacity="0.2"/>
<stop offset="0.25" stop-color="#F77847" stop-opacity="0.1"/>
<stop offset="0.5" stop-color="#FEA800" stop-opacity="0.1"/>
<stop offset="1" stop-color="#EADDBF" stop-opacity="0.1"/>
</linearGradient>
<linearGradient id="paint7_linear_13667_833" x1="113.583" y1="60.4606" x2="275.386" y2="377.521" gradientUnits="userSpaceOnUse">
<stop stop-color="#537993" stop-opacity="0.5"/>
<stop offset="0.25" stop-color="#F77847"/>
<stop offset="0.5" stop-color="#FEA800" stop-opacity="0.5"/>
<stop offset="1" stop-color="#EADDBF"/>
</linearGradient>
</defs>
</svg>
