<svg width="173" height="57" viewBox="0 0 173 57" fill="none" xmlns="http://www.w3.org/2000/svg">
<path d="M51.0724 14.7291C51.6366 13.7698 52.9822 13.7915 53.4428 14.8079C55.1712 18.6215 56.0764 22.7882 56.083 27.0181C56.0908 32.0814 54.8108 37.0581 52.3708 41.451C49.9308 45.844 46.4163 49.4994 42.1784 52.052C37.9404 54.6045 33.1275 55.965 28.2205 55.9973C23.3135 56.0296 18.4841 54.7327 14.215 52.2361C9.94582 49.7396 6.38636 46.1308 3.89221 41.7704C1.39806 37.4099 0.056567 32.4505 0.00175011 27.3875C-0.0442959 23.1347 0.818888 18.9339 2.51824 15.0807C2.96219 14.074 4.28331 14.0192 4.87345 14.9424L16.7848 33.5772C17.8983 35.3193 20.3786 35.3091 21.4786 33.5579L27.1827 24.4773C27.743 23.5853 29.0057 23.5783 29.5753 24.4639L35.3706 33.4744C36.5069 35.241 39.0379 35.1882 40.1041 33.3757L51.0724 14.7291Z" fill="url(#paint0_linear_12909_2374)"/>
<path fill-rule="evenodd" clip-rule="evenodd" d="M20.745 19.0793C23.8319 19.0373 26.4188 19.6287 28.5947 22.3699C30.2634 19.5244 31.1645 17.648 33.9073 14.808C35.9103 12.9273 37.7702 12.2119 40.1041 11.9258C35.3706 16.3604 32.4766 20.3663 28.5947 27.7298C27.2155 24.6907 23.4293 20.9751 20.745 19.0793Z" fill="url(#paint1_linear_12909_2374)"/>
<path d="M17.8292 5.35246C17.8761 5.32686 17.9355 5.34337 17.9612 5.38959C17.9876 5.43545 17.9708 5.49321 17.9243 5.51865C17.8681 5.54936 17.8136 5.57936 17.7609 5.60862C17.7607 5.60875 17.7604 5.60898 17.7602 5.60911C17.1726 5.93625 16.7529 6.19572 16.4065 6.47718C16.2159 6.63131 15.6337 7.10512 14.7878 7.5801C14.5452 7.71513 14.3525 7.82313 14.2077 7.90201C14.1908 7.91144 14.1744 7.92055 14.1586 7.9294C14.1582 7.9296 14.1579 7.92982 14.1575 7.93001C14.0284 8.00248 13.934 8.0549 13.8413 8.11434C13.8393 8.1157 13.8373 8.117 13.8352 8.11836C13.5881 8.27826 13.376 8.53372 13.1615 8.7159C13.1227 8.74872 13.0643 8.74213 13.0291 8.70275C12.9939 8.66331 12.9956 8.60564 13.0349 8.57236C13.2575 8.3832 13.4774 8.12235 13.7249 7.96191C13.7284 7.95965 13.7319 7.95736 13.7354 7.95509C13.8305 7.89458 13.9322 7.83724 14.0617 7.76455C14.0782 7.75531 14.0953 7.74584 14.1127 7.73607C14.2544 7.65969 14.4516 7.54835 14.6907 7.41574C15.5228 6.94835 16.0951 6.48202 16.2823 6.33047C16.6407 6.03928 17.0723 5.77282 17.6608 5.44499C17.7152 5.4148 17.7713 5.38408 17.8292 5.35246ZM33.1449 1.58761C33.1536 1.53547 33.2057 1.50177 33.2611 1.51249C33.8778 1.62996 34.7382 1.87972 35.4718 2.13779C35.8322 2.26325 36.1607 2.38739 36.4249 2.48709C36.8379 2.64341 37.071 2.78422 37.3106 2.92892C37.3131 2.93044 37.3156 2.93203 37.3181 2.93355C37.5538 3.07769 37.7854 3.22104 38.187 3.40654C38.5867 3.59123 39.1617 3.82713 39.7252 4.08396C39.7257 4.08417 39.726 4.08447 39.7265 4.08469C40.2936 4.34221 40.8994 4.53692 41.2908 4.77817C42.637 5.61104 43.3513 6.3103 43.6835 6.68196C44.2538 7.33066 45.15 7.79416 45.6159 8.55726C45.642 8.65424 45.4436 8.66119 45.339 8.50771C45.3357 8.50305 45.3323 8.49825 45.3289 8.49347C45.2978 8.44981 45.2547 8.39841 45.209 8.34749C45.1408 8.27804 45.0654 8.21092 45.0192 8.1701C44.8836 8.03783 43.8695 7.16572 43.5404 6.80882C43.2253 6.45765 42.4029 5.96484 41.0708 5.14025C40.6934 4.90761 40.2182 4.51898 39.65 4.26061C39.6485 4.25992 39.6469 4.25912 39.6454 4.25842C39.0901 4.00534 38.5135 3.76851 38.1098 3.58198C37.6964 3.39095 37.4564 3.24206 37.2188 3.09681C37.2165 3.0954 37.2142 3.09397 37.2119 3.09255C36.9758 2.94997 36.7559 2.81704 36.3607 2.6674C36.0928 2.56625 35.7624 2.44177 35.4027 2.31664C34.6773 2.06174 33.8356 1.81719 33.2291 1.70145C33.1741 1.69073 33.1364 1.63983 33.1449 1.58761ZM30.6876 1.01624C30.7437 1.01134 30.7948 1.05068 30.8015 1.10354C30.8081 1.15634 30.7683 1.2028 30.7128 1.20763C30.6835 1.21019 30.635 1.2154 30.5699 1.22273C30.2188 1.26177 29.3997 1.36484 28.4422 1.47901C28.1118 1.51768 27.7724 1.55722 27.4273 1.59248C27.312 1.60419 27.2093 1.61623 27.1119 1.62827C26.6972 1.68218 26.3708 1.83616 25.5857 1.92826C22.2839 2.32279 18.9534 3.32645 16.1671 5.23497C15.3611 5.78711 14.5824 6.33394 13.8062 6.93289C13.1696 7.40724 11.9845 8.34036 11.7554 8.58088C11.732 8.60369 11.71 8.61013 11.6893 8.60596C11.654 8.61708 11.642 8.59448 11.6218 8.57735C11.6029 8.55901 11.5821 8.54649 11.5921 8.51173C11.5884 8.4914 11.596 8.46908 11.6202 8.44538C11.8532 8.20097 13.0427 7.26353 13.6819 6.78679C14.4617 6.18457 15.2449 5.63435 16.0548 5.07938C18.8532 3.15949 22.1516 1.91329 25.5361 1.5075C26.3309 1.41443 26.6677 1.49293 27.0829 1.43871C27.1814 1.42651 27.2855 1.41413 27.4029 1.40219C27.7576 1.36589 28.1054 1.32505 28.4435 1.28531C29.3824 1.17291 30.1848 1.07168 30.5377 1.03207C30.6054 1.02443 30.6563 1.01898 30.6876 1.01624ZM43.6304 7.99722C43.6636 7.95603 43.7245 7.95095 43.7651 7.98517C43.859 8.06459 43.9593 8.15039 44.0549 8.23365C44.0947 8.26838 44.0981 8.32839 44.0641 8.3688C44.03 8.40915 43.9715 8.41491 43.932 8.38048C43.8371 8.29776 43.7379 8.21277 43.6446 8.13382C43.6044 8.09986 43.5974 8.0384 43.6304 7.99722ZM30.8129 1.98853C31.0991 1.9505 31.4769 2.00911 31.7984 2.0925C32.1199 2.17542 32.4129 2.28819 32.5436 2.34915C32.6736 2.40906 32.8185 2.44952 32.9991 2.49537C33.0401 2.50582 33.0827 2.51649 33.1266 2.52764C33.2716 2.56445 33.4319 2.60663 33.6038 2.66412C34.2425 2.87808 34.655 3.00509 34.9549 3.09109C35.0162 3.10882 35.0732 3.12504 35.1263 3.1404L35.1266 3.14052C35.3266 3.19838 35.4807 3.24551 35.6098 3.31207C35.8401 3.43098 36.0249 3.53303 36.2397 3.68389C36.5315 3.88955 36.9967 4.06245 37.3143 4.12815C37.3319 4.13175 37.3495 4.13522 37.368 4.13911C37.6054 4.18959 37.8874 4.24876 38.3024 4.39502C38.6444 4.51558 38.9261 4.65779 39.1698 4.79314C39.2394 4.83178 39.3048 4.86951 39.3672 4.90564C39.5289 4.99899 39.6723 5.08395 39.81 5.15377C40.6717 5.59364 41.122 5.92062 41.3933 6.1515C41.5935 6.32533 41.6977 6.45547 41.7658 6.54463C41.7868 6.57187 41.8051 6.59607 41.823 6.61743C41.9774 6.80416 42.1553 6.96306 42.343 7.14071C42.3878 7.18235 42.4338 7.22548 42.4807 7.2705C42.6365 7.42037 42.7646 7.50704 42.876 7.57219C42.9237 7.59997 42.9664 7.62245 43.0064 7.64341C43.0071 7.64377 43.0078 7.64415 43.0086 7.64451C43.0141 7.64743 43.0197 7.6504 43.0251 7.65328C43.0292 7.65544 43.0335 7.65743 43.0376 7.65961C43.0396 7.65992 43.0413 7.66042 43.0425 7.6607C43.0436 7.66093 43.0444 7.66106 43.0449 7.66119H43.0452C43.0544 7.66344 43.0612 7.66673 43.0626 7.6674C43.0651 7.66855 43.067 7.66985 43.0681 7.67044C43.0737 7.67356 43.0806 7.6781 43.0852 7.68116C43.0973 7.68942 43.115 7.70158 43.1486 7.72584C43.1781 7.74465 43.2074 7.76097 43.2438 7.78111C43.2461 7.78237 43.2484 7.78363 43.2507 7.78489C43.2861 7.80451 43.3272 7.82745 43.3766 7.85721C43.4216 7.8843 43.4356 7.94292 43.4088 7.98857C43.3818 8.03421 43.3247 8.04995 43.2803 8.02327C43.2343 7.99561 43.1964 7.97445 43.1614 7.95509C43.1591 7.95388 43.1569 7.95265 43.1547 7.95144C43.1181 7.93122 43.0832 7.91183 43.0468 7.8885C43.0346 7.88068 43.0221 7.87243 43.0105 7.86451C42.9904 7.85233 42.9667 7.83952 42.9378 7.82433C42.9321 7.82129 42.9261 7.81805 42.9199 7.81484C42.8805 7.7942 42.8342 7.76998 42.7829 7.74008C42.6602 7.66843 42.5194 7.57265 42.3504 7.41026C42.3059 7.36757 42.2612 7.32571 42.2182 7.28559C42.0312 7.1085 41.8435 6.94044 41.6791 6.74247C41.6558 6.7148 41.6342 6.68659 41.6109 6.65652C41.542 6.56758 41.456 6.45862 41.2707 6.29796C41.0129 6.07894 40.5781 5.76128 39.7268 5.32653C39.5835 5.25381 39.4311 5.16346 39.2683 5.06951C39.2075 5.03434 39.1447 4.99843 39.0799 4.96238C38.8417 4.83005 38.5703 4.69312 38.2429 4.57765C37.8388 4.43507 37.5678 4.37838 37.3332 4.32843C37.3251 4.32679 37.3171 4.32507 37.309 4.32344C37.299 4.32136 37.289 4.31934 37.2793 4.31735C36.9434 4.24789 36.4523 4.06685 36.1315 3.84094C35.9268 3.69746 35.7526 3.60074 35.5247 3.48312C35.413 3.4256 35.2824 3.38557 35.0874 3.32887C35.0327 3.31299 34.9724 3.29556 34.9054 3.27615C34.6026 3.18927 34.1869 3.06139 33.5465 2.84674C33.3813 2.79148 33.2291 2.75125 33.0861 2.71489C33.0417 2.7036 32.9981 2.69267 32.9553 2.68177C32.7751 2.63598 32.6147 2.59209 32.4655 2.52337C32.3447 2.46714 32.0641 2.35862 31.7538 2.27854C31.4391 2.19697 31.0918 2.14597 30.8427 2.17907C30.8167 2.18245 30.7904 2.18575 30.7641 2.18917C30.5385 2.21865 30.3039 2.25217 30.1186 2.33004C29.6626 2.605 29.0575 2.65136 28.4341 2.65085C27.8923 2.64933 27.3486 2.61286 26.906 2.6271C26.8936 2.62748 26.8811 2.6278 26.8688 2.6282C25.7701 2.66526 24.987 2.81173 24.7158 2.86013C24.7033 2.86243 24.692 2.86457 24.6817 2.86646C24.6726 2.86815 24.6643 2.86975 24.657 2.87109C24.5477 2.89126 24.4527 2.91614 24.3538 2.94268C24.3484 2.94413 24.343 2.9456 24.3376 2.94706C24.2334 2.97513 24.1233 3.0048 23.9903 3.03253C23.4998 3.1351 23.1047 3.24533 22.7679 3.34762C22.7054 3.36662 22.6461 3.38489 22.5861 3.40374C22.586 3.40379 22.5857 3.40394 22.5855 3.40399C22.3233 3.48656 22.0948 3.56371 21.8788 3.63324C21.4756 3.76356 21.2213 3.86829 21.0155 3.95746C20.9518 3.98523 20.8935 4.01145 20.8389 4.03635C20.7206 4.0902 20.6185 4.13785 20.5121 4.18269C20.3088 4.26837 20.1254 4.35814 19.949 4.44713C19.9333 4.45507 19.9176 4.46294 19.9019 4.47087C19.7104 4.56796 19.5166 4.66815 19.3141 4.76198C19.267 4.78376 19.21 4.76291 19.1867 4.71547C19.1634 4.66803 19.1827 4.61161 19.2302 4.58958C19.4285 4.49766 19.6185 4.39957 19.8122 4.3014C19.828 4.29336 19.8439 4.28512 19.8599 4.27705C20.0372 4.18755 20.2251 4.09577 20.4343 4.00762C20.5377 3.96402 20.635 3.91866 20.7517 3.86542C20.8074 3.84001 20.8677 3.81275 20.9354 3.78324C21.1465 3.69175 21.4058 3.58477 21.8165 3.45196C22.0318 3.38261 22.2591 3.30587 22.5234 3.22258C22.5847 3.20331 22.6448 3.18467 22.7086 3.16524C23.0491 3.06177 23.4499 2.9499 23.9475 2.84577C24.0741 2.81934 24.1798 2.7908 24.2844 2.76261C24.2902 2.76105 24.2961 2.75954 24.302 2.75799C24.4009 2.73143 24.5021 2.70487 24.6185 2.68335C24.6341 2.68048 24.654 2.67691 24.678 2.67252C24.9521 2.62355 25.7455 2.47481 26.8585 2.43705C26.8619 2.43697 26.8653 2.43689 26.8688 2.43681C27.6142 2.41426 28.0278 2.43073 28.3472 2.38275C28.3777 2.3783 28.4073 2.37438 28.4361 2.37082C28.6447 2.34512 28.8061 2.34106 28.941 2.34112C28.9702 2.34114 28.9979 2.34124 29.0242 2.34148C29.1381 2.34256 29.2278 2.34413 29.3178 2.33515C29.594 2.30847 29.7946 2.25604 30.0419 2.15265C30.2499 2.06493 30.5093 2.02778 30.7334 1.99876C30.7337 1.99872 30.7341 1.99868 30.7344 1.99864C30.761 1.99518 30.7873 1.99186 30.8129 1.98853ZM15.4303 3.95953C15.4787 3.92673 15.5436 3.93513 15.5745 3.97816C15.6054 4.02118 15.591 4.08244 15.543 4.115C15.2877 4.28806 15.1212 4.4086 14.9776 4.51227C14.7198 4.69978 14.6068 4.78602 14.4127 4.91611C13.931 5.23967 13.4649 5.57869 13.0625 5.88852C12.3875 6.40752 11.871 6.85864 11.5883 7.10187C11.5472 7.13701 11.4772 7.14134 11.443 7.10102C11.4066 7.06272 11.4202 6.99393 11.4612 6.95882C11.7446 6.71489 12.2613 6.26351 12.9382 5.74267C13.3441 5.42985 13.8142 5.08742 14.3025 4.7593C14.4917 4.63243 14.5999 4.55022 14.8528 4.36593C14.9965 4.26203 15.1673 4.13799 15.4303 3.95953ZM30.4299 0.0210633C31.0873 -0.0398607 31.7691 0.0368062 32.6185 0.181163C32.904 0.230089 33.1989 0.285296 33.5284 0.349786C35.3858 0.537153 37.1677 1.20017 38.7303 2.13974C39.1545 2.33497 39.7498 2.63116 40.3212 2.94463C40.3276 2.94819 40.3339 2.95178 40.3403 2.95534C40.9143 3.26904 41.4609 3.59603 41.8581 3.8407C43.253 4.70309 44.0554 5.3474 44.4055 5.73244C44.7314 6.09635 44.8237 6.17169 44.9858 6.29943C44.99 6.30283 44.9942 6.30626 44.9984 6.30965C44.9987 6.30975 44.9991 6.3098 44.9995 6.3099C45.0063 6.31216 45.0116 6.31465 45.0143 6.31598C45.0198 6.3187 45.0239 6.32133 45.0254 6.32231C45.0289 6.32457 45.0317 6.32666 45.0327 6.32743C45.0368 6.33049 45.0414 6.33415 45.0443 6.33656C45.0718 6.35955 45.15 6.42928 45.2124 6.48984C45.2798 6.5546 45.3227 6.60305 45.3665 6.65384C45.3709 6.65898 45.3753 6.66417 45.3797 6.6693C45.4194 6.71548 45.457 6.76117 45.527 6.83573C45.5677 6.87964 45.5673 6.9428 45.5282 6.9783C45.489 7.01367 45.426 7.00802 45.3852 6.96418C45.3112 6.8856 45.2749 6.84026 45.2337 6.79287C45.2293 6.78777 45.2249 6.78266 45.2206 6.77753C45.1785 6.72888 45.1402 6.68614 45.0807 6.62888C44.9992 6.55567 44.9349 6.504 44.874 6.45551C44.708 6.32458 44.5988 6.23547 44.2613 5.85821C43.931 5.4956 43.1559 4.86872 41.7609 4.00555C41.3655 3.76189 40.8217 3.43658 40.2519 3.12506C40.2454 3.12149 40.2388 3.11792 40.2322 3.11434C39.6641 2.80261 39.0737 2.50849 38.6533 2.31494C36.9906 1.54881 35.268 1.07055 33.4969 0.538863C33.1589 0.472664 32.8602 0.416996 32.5736 0.368049C31.7384 0.226789 31.0901 0.154278 30.4599 0.21221C30.3227 0.225556 29.9718 0.214265 29.4545 0.215375C29.3054 0.215908 29.1417 0.217497 28.9639 0.221462C28.804 0.225031 28.6327 0.230483 28.4506 0.238629C28.1348 0.252696 27.7935 0.275244 27.4299 0.310339C27.3075 0.322038 27.1984 0.334127 27.095 0.346255C26.6552 0.400674 26.3045 0.441206 25.4677 0.537402C24.4334 0.645215 22.7118 0.966642 21.809 1.20678C21.3524 1.32157 21.1016 1.38749 20.9164 1.43372C20.8655 1.44651 20.8208 1.45749 20.7798 1.46781C20.6729 1.4948 20.5902 1.51625 20.484 1.54889C19.7119 1.79021 19.1975 2.01754 18.3751 2.4401C18.3241 2.46658 18.2618 2.45066 18.2357 2.40455C18.2097 2.35844 18.2299 2.29932 18.2812 2.27257C19.1108 1.84606 19.6366 1.61326 20.4252 1.36676C20.537 1.3324 20.6262 1.30933 20.7359 1.28165C20.7765 1.2714 20.8202 1.26053 20.8688 1.2483C21.0525 1.20243 21.3022 1.13677 21.7601 1.0216C22.6682 0.779929 24.4014 0.456148 25.4412 0.347595C26.2767 0.251402 26.6239 0.211356 27.0655 0.15657C27.17 0.144288 27.2804 0.131981 27.4048 0.120045C27.7787 0.0838809 28.1285 0.060788 28.4519 0.0465089C28.63 0.038612 28.7976 0.0332373 28.9542 0.0297075C29.1333 0.0256731 29.2981 0.024082 29.4476 0.0234983C29.979 0.0223604 30.3123 0.0329018 30.4299 0.0210633Z" fill="url(#paint2_linear_12909_2374)"/>
<path d="M23.5894 33.1839C24.7001 31.9541 28.5856 25.5698 28.5856 25.5698C28.5856 25.5698 32.9559 32.2879 34.2149 34.2519C35.1213 35.3598 37.5385 35.7683 37.5385 35.7683C37.5385 35.7683 35.791 36.5497 33.814 35.7684C31.837 34.9871 28.7021 28.7134 28.7021 28.7134C28.7021 28.7134 26.8267 32.6091 25.1082 34.4886C22.6125 37.218 20.051 37.189 20.051 37.189C20.051 37.189 22.1096 35.0847 23.5894 33.1839Z" fill="url(#paint3_linear_12909_2374)"/>
<path d="M33.4271 16.8342C32.5744 17.7783 28.6962 24.3032 28.6962 24.3032C28.6962 24.3032 26.9878 22.3757 25.6079 21.3682C24.228 20.3606 21.4244 18.9811 21.4244 18.9811C21.4244 18.9811 23.8118 18.9811 25.6079 19.8788C27.4039 20.7765 28.5427 22.2436 28.5427 22.2436C28.5427 22.2436 31.5435 16.9649 33.4271 15.1689C36.0519 12.2982 38.9029 12.0809 38.9029 12.0809C38.9029 12.0809 34.5632 15.3749 33.4271 16.8342Z" fill="url(#paint4_linear_12909_2374)"/>
<path d="M33.4271 16.8342C32.5744 17.7783 28.6962 24.3032 28.6962 24.3032C28.6962 24.3032 26.9878 22.3757 25.6079 21.3682C24.228 20.3606 21.4244 18.9811 21.4244 18.9811C21.4244 18.9811 23.8118 18.9811 25.6079 19.8788C27.4039 20.7765 28.5427 22.2436 28.5427 22.2436C28.5427 22.2436 31.5435 16.9649 33.4271 15.1689C36.0519 12.2982 38.9029 12.0809 38.9029 12.0809C38.9029 12.0809 34.5632 15.3749 33.4271 16.8342Z" fill="url(#paint5_linear_12909_2374)"/>
<path d="M173.002 30.892H168.172L163.86 24.6716C163.458 24.0552 163.141 23.4107 162.911 22.7382C162.71 22.0377 162.61 21.3372 162.61 20.6367C162.61 19.9362 162.71 19.2497 162.911 18.5773C163.141 17.8768 163.458 17.2043 163.86 16.5598L168.129 10.2974H173.002L167.569 18.2831C166.994 19.1517 166.706 19.9222 166.706 20.5947C166.706 21.3232 167.022 22.1498 167.655 23.0745L173.002 30.892ZM155.365 30.892H150.535L155.882 23.0745C156.515 22.1498 156.831 21.3232 156.831 20.5947C156.831 19.9222 156.544 19.1517 155.969 18.2831L150.535 10.2974H155.365L159.677 16.5598C160.108 17.2043 160.425 17.8768 160.626 18.5773C160.827 19.2497 160.928 19.9362 160.928 20.6367C160.928 21.3372 160.827 22.0377 160.626 22.7382C160.425 23.4107 160.108 24.0552 159.677 24.6716L155.365 30.892ZM164.895 22.402H158.944V18.6193H164.895V22.402Z" fill="url(#paint6_linear_12909_2374)"/>
<path d="M138.454 31.8281C136.327 31.8281 134.415 31.3465 132.719 30.3834C131.023 29.391 129.672 28.0484 128.665 26.3556C127.688 24.6336 127.199 22.7219 127.199 20.6204V0H131.468V16.9867L129.269 18.125C129.269 16.5489 129.686 15.0895 130.52 13.7469C131.382 12.4044 132.518 11.339 133.926 10.551C135.364 9.73377 136.931 9.32516 138.627 9.32516C140.783 9.32516 142.68 9.82133 144.319 10.8137C145.986 11.7768 147.294 13.1048 148.243 14.7977C149.192 16.4905 149.666 18.4314 149.666 20.6204C149.666 22.6635 149.177 24.5314 148.2 26.2243C147.223 27.9171 145.886 29.2743 144.19 30.2958C142.493 31.3174 140.582 31.8281 138.454 31.8281ZM138.454 27.7566C139.777 27.7566 140.955 27.4355 141.99 26.7934C143.054 26.1221 143.888 25.2465 144.491 24.1666C145.095 23.0867 145.397 21.89 145.397 20.5766C145.397 19.2924 145.095 18.1104 144.491 17.0305C143.888 15.9214 143.054 15.0458 141.99 14.4037C140.955 13.7615 139.777 13.4405 138.454 13.4405C137.132 13.4405 135.939 13.7615 134.875 14.4037C133.84 15.0458 133.006 15.9214 132.374 17.0305C131.77 18.1104 131.468 19.2924 131.468 20.5766C131.468 21.89 131.77 23.0867 132.374 24.1666C133.006 25.2465 133.84 26.1221 134.875 26.7934C135.939 27.4355 137.132 27.7566 138.454 27.7566Z" fill="url(#paint7_linear_12909_2374)"/>
<path d="M114.264 31.8282C112.088 31.8282 110.132 31.3484 108.396 30.3886C106.661 29.3998 105.293 28.0619 104.293 26.3751C103.293 24.6592 102.793 22.7106 102.793 20.5293C102.793 18.4935 103.249 16.6322 104.161 14.9453C105.073 13.2294 106.352 11.877 107.999 10.8882C109.646 9.87029 111.558 9.36133 113.735 9.36133C115.911 9.36133 117.779 9.8412 119.338 10.801C120.926 11.7316 122.147 13.0113 123 14.64C123.883 16.2395 124.324 18.0282 124.324 20.0058V21.7508H106.19L106.984 20.0058C106.896 21.5182 107.146 22.8706 107.734 24.063C108.323 25.2554 109.176 26.2151 110.293 26.9422C111.411 27.6402 112.72 27.9892 114.22 27.9892C115.573 27.9892 116.794 27.6984 117.882 27.1167C119 26.5351 119.882 25.6626 120.529 24.4992L123.883 26.2006C122.941 28.0329 121.632 29.4289 119.956 30.3886C118.279 31.3484 116.382 31.8282 114.264 31.8282ZM107.205 18.9588H119.956C119.897 17.8246 119.588 16.8212 119.029 15.9487C118.5 15.0762 117.765 14.4073 116.823 13.942C115.911 13.4766 114.867 13.244 113.691 13.244C112.485 13.244 111.411 13.4912 110.47 13.9856C109.558 14.48 108.823 15.1635 108.264 16.036C107.734 16.9085 107.381 17.8828 107.205 18.9588Z" fill="url(#paint8_linear_12909_2374)"/>
<path d="M67.1974 27.7518L61.6055 0.268799H66.027L71.0988 26.3632C71.1855 26.6917 71.2722 26.9455 71.3589 27.1247C71.4745 27.274 71.619 27.3487 71.7924 27.3487C71.9658 27.3487 72.1103 27.274 72.2259 27.1247C72.3703 26.9754 72.4715 26.7215 72.5293 26.3632L77.341 14.3289C77.63 12.9253 78.1213 11.91 78.8148 11.2828C79.5373 10.6259 80.3898 10.2974 81.3724 10.2974C82.3839 10.2974 83.2364 10.6259 83.93 11.2828C84.6524 11.91 85.1582 12.9104 85.4472 14.2841L90.4322 26.3632C90.5189 26.6618 90.6056 26.9007 90.6923 27.0799C90.8079 27.2292 90.9669 27.3039 91.1692 27.3039C91.3425 27.3039 91.4726 27.2292 91.5593 27.0799C91.6749 26.9007 91.7616 26.6618 91.8194 26.3632L96.501 0.268799H100.923L95.7641 27.4831C95.504 28.8269 94.9983 29.887 94.2469 30.6635C93.5244 31.4101 92.5708 31.7834 91.3859 31.7834C90.2299 31.7834 89.2618 31.4399 88.4815 30.7531C87.7302 30.0364 87.1811 28.9911 86.8343 27.6174L81.8059 15.2696C81.777 15.0605 81.7192 14.9262 81.6325 14.8664C81.5747 14.7768 81.488 14.7321 81.3724 14.7321C81.2857 14.7321 81.199 14.7768 81.1123 14.8664C81.0545 14.9262 80.9967 15.0605 80.9389 15.2696L76.0405 27.8862C75.7804 29.1405 75.2458 30.111 74.4366 30.7979C73.6564 31.4847 72.746 31.8282 71.7057 31.8282C70.5786 31.8282 69.6105 31.4847 68.8013 30.7979C68.021 30.0812 67.4864 29.0658 67.1974 27.7518Z" fill="url(#paint9_linear_12909_2374)"/>
<path d="M64.7523 39.5719C65.6269 39.5771 66.7098 39.5433 67.5751 39.5641C67.5872 39.5644 67.5994 39.5648 67.6114 39.5651C67.9651 39.5735 68.3255 39.5857 68.7615 39.6005C68.817 39.6023 68.8739 39.6043 68.932 39.6063C69.4488 39.6238 70.0836 39.6448 70.9486 39.6681C73.8534 39.7463 76.1438 39.6943 76.8564 39.6781C78.2852 39.6456 79.8096 39.6451 81.8894 39.6442C82.0795 39.6441 82.2745 39.644 82.4743 39.6439C82.6362 39.6438 82.7702 39.6701 82.7739 39.7028C82.7775 39.7354 82.6492 39.762 82.4873 39.7621C82.2917 39.7622 82.101 39.7622 81.9153 39.7623C81.9145 39.7623 81.9135 39.7623 81.9127 39.7623C79.8199 39.7633 78.3286 39.7638 76.9334 39.7955C76.2053 39.8121 73.8587 39.8652 70.8823 39.785C70.008 39.7615 69.366 39.7406 68.8461 39.723C68.7892 39.7211 68.7336 39.7192 68.6797 39.7174C68.6785 39.7174 68.6772 39.7172 68.6759 39.7172C68.2371 39.7023 67.8918 39.6904 67.5534 39.6822C67.5462 39.6821 67.539 39.6821 67.5319 39.682C66.6569 39.661 65.5948 39.6949 64.7466 39.6898C64.5846 39.6888 64.4545 39.6616 64.4561 39.629C64.458 39.5964 64.5905 39.571 64.7523 39.5719ZM123.81 39.1839C124.654 39.1407 125.778 39.1456 126.769 39.1649C127.768 39.1843 128.672 39.2192 129.098 39.2406C129.514 39.2615 129.976 39.2682 130.527 39.2723C130.653 39.2733 130.785 39.2742 130.92 39.275C131.368 39.2778 131.867 39.2811 132.414 39.2904C134.424 39.3247 135.734 39.326 136.67 39.3229C136.863 39.3222 137.042 39.3215 137.209 39.3207H137.21C137.843 39.3176 138.315 39.3153 138.749 39.3287C139.522 39.3527 140.153 39.3739 140.914 39.4154C141.965 39.4726 143.461 39.4657 144.434 39.4264C144.487 39.4242 144.542 39.422 144.598 39.4198C145.303 39.3911 146.172 39.3558 147.475 39.3295C148.558 39.3076 149.501 39.3094 150.336 39.3155C150.576 39.3173 150.804 39.3194 151.023 39.3214C151.577 39.3265 152.072 39.3311 152.539 39.3285C155.432 39.312 157.1 39.3332 158.149 39.3653C158.956 39.3901 159.406 39.422 159.731 39.4449C159.829 39.4519 159.916 39.4581 159.998 39.463C160.726 39.5065 161.395 39.5261 162.199 39.5497C162.378 39.5549 162.564 39.5604 162.758 39.5663C163.407 39.5861 163.89 39.5827 164.269 39.5743C164.435 39.5707 164.581 39.5662 164.719 39.5619C164.721 39.5618 164.724 39.5615 164.726 39.5614C164.746 39.5608 164.765 39.5603 164.784 39.5597C164.798 39.5592 164.812 39.5587 164.826 39.5582C164.832 39.5576 164.837 39.5573 164.841 39.557C164.844 39.5567 164.846 39.5564 164.847 39.5563H164.848C164.875 39.554 164.898 39.553 164.903 39.5528C164.912 39.5525 164.919 39.5525 164.923 39.5524C164.943 39.5518 164.969 39.5515 164.986 39.5514C165.03 39.551 165.106 39.5505 165.223 39.5499C165.326 39.5482 165.424 39.5453 165.548 39.5416C165.555 39.5414 165.563 39.5411 165.571 39.5409C165.691 39.5373 165.832 39.533 166.008 39.5289C166.169 39.5252 166.316 39.5485 166.338 39.5809C166.359 39.6133 166.246 39.6427 166.086 39.6464C165.92 39.6502 165.788 39.6542 165.668 39.6578C165.66 39.6581 165.652 39.6583 165.645 39.6586C165.52 39.6623 165.401 39.6658 165.273 39.6678C165.23 39.6685 165.186 39.6689 165.145 39.6693C165.07 39.6708 164.986 39.6735 164.885 39.6766C164.864 39.6773 164.843 39.6777 164.822 39.6783C164.685 39.6827 164.525 39.6878 164.344 39.6918C163.922 39.7011 163.387 39.7045 162.681 39.683C162.495 39.6773 162.316 39.6722 162.14 39.6671C161.333 39.6435 160.614 39.6225 159.841 39.5763C159.735 39.5699 159.634 39.5627 159.525 39.555C159.202 39.5323 158.817 39.5051 158.072 39.4823C157.073 39.4517 155.444 39.4302 152.567 39.4466C152.077 39.4494 151.549 39.4445 150.986 39.4393C150.771 39.4373 150.551 39.4354 150.326 39.4337C149.504 39.4276 148.59 39.426 147.545 39.4471C146.271 39.4729 145.426 39.5072 144.723 39.5358C144.699 39.5368 144.675 39.5377 144.651 39.5387C144.62 39.5399 144.59 39.5412 144.561 39.5423C143.523 39.5843 141.932 39.5926 140.771 39.5294C140.043 39.4898 139.439 39.4695 138.671 39.4457C138.293 39.434 137.889 39.4359 137.269 39.4388C137.095 39.4397 136.903 39.4403 136.691 39.441C135.739 39.4442 134.408 39.4427 132.376 39.4081C131.846 39.399 131.369 39.396 130.924 39.3932C130.785 39.3923 130.649 39.3915 130.516 39.3905C129.962 39.3863 129.447 39.3795 128.966 39.3553C128.571 39.3354 127.696 39.3014 126.725 39.2826C125.746 39.2636 124.707 39.2607 123.965 39.2987C123.888 39.3026 123.81 39.3065 123.732 39.3104C123.063 39.3443 122.38 39.3789 121.83 39.4364C120.655 39.6088 119.024 39.6675 117.321 39.6796C115.454 39.6927 113.499 39.6497 111.96 39.6383C111.921 39.638 111.883 39.6379 111.844 39.6376C108.446 39.6125 105.977 39.6155 105.135 39.6166C105.096 39.6166 105.06 39.6168 105.028 39.6168C104.999 39.6168 104.973 39.617 104.95 39.6171C104.608 39.6174 104.304 39.6215 103.986 39.6258C103.969 39.6261 103.951 39.6263 103.934 39.6266C103.598 39.6312 103.246 39.6358 102.829 39.6354C101.28 39.6339 100.017 39.6392 98.9239 39.6449C98.7215 39.6459 98.5247 39.647 98.3329 39.6481H98.3313C97.4897 39.6526 96.743 39.6566 96.0344 39.6566C94.7423 39.6567 93.8692 39.6642 93.1904 39.6722C92.9775 39.6748 92.7813 39.6773 92.5962 39.6798C92.1959 39.6851 91.8462 39.6899 91.4856 39.6915C90.8075 39.6946 90.1833 39.7027 89.5685 39.7106C89.5137 39.7113 89.4587 39.7118 89.404 39.7125C88.7375 39.721 88.0776 39.7289 87.3798 39.7291C87.2178 39.7292 87.0833 39.7027 87.0799 39.67C87.0769 39.6375 87.2058 39.611 87.3675 39.611C88.0453 39.6107 88.6891 39.6031 89.3554 39.5946C89.4103 39.5939 89.4655 39.5931 89.5208 39.5924C90.1341 39.5845 90.7699 39.5765 91.4607 39.5734C91.8084 39.5718 92.1388 39.5674 92.5312 39.5621C92.7184 39.5596 92.92 39.557 93.1443 39.5543C93.8335 39.5461 94.7178 39.5385 96.0224 39.5384C96.7224 39.5384 97.4596 39.5345 98.3007 39.5299C98.4937 39.5288 98.6923 39.5278 98.8971 39.5267C99.9926 39.521 101.262 39.5155 102.82 39.517C103.214 39.5173 103.548 39.5133 103.883 39.5087C103.901 39.5084 103.92 39.5082 103.939 39.5079C104.254 39.5036 104.574 39.499 104.936 39.4986C104.985 39.4986 105.047 39.4987 105.121 39.4986C105.964 39.4976 108.444 39.4942 111.854 39.5194C111.864 39.5195 111.875 39.5195 111.885 39.5196C114.17 39.5365 115.46 39.5462 116.43 39.517C116.761 39.507 117.055 39.5002 117.321 39.4955C117.671 39.4893 117.972 39.4868 118.239 39.4852C118.328 39.4847 118.413 39.4842 118.494 39.4838C118.843 39.482 119.119 39.4805 119.395 39.4723C120.23 39.4475 120.828 39.4069 121.552 39.3312C122.166 39.267 122.918 39.2292 123.577 39.1959C123.578 39.1959 123.578 39.1957 123.579 39.1957C123.658 39.1917 123.734 39.1878 123.81 39.1839ZM168.333 39.4506C168.494 39.4515 168.624 39.4788 168.623 39.5113C168.621 39.5439 168.488 39.5697 168.327 39.5687C167.941 39.5664 167.555 39.564 167.169 39.5616C167.007 39.5606 166.877 39.5334 166.879 39.5008C166.881 39.4683 167.013 39.4425 167.175 39.4435C167.561 39.4458 167.947 39.4482 168.333 39.4506ZM123.134 38.596C123.292 38.5895 123.449 38.6103 123.485 38.6422C123.521 38.6741 123.422 38.7054 123.264 38.712C123.181 38.7155 123.043 38.7218 122.859 38.7303C121.941 38.7727 119.851 38.8693 117.321 38.942C116.182 38.9747 114.954 39.0025 113.703 39.0184C113.364 39.0227 113.06 39.027 112.771 39.0311C111.533 39.0486 110.539 39.1324 108.171 39.129C98.2131 39.1147 88.2632 38.9648 78.3215 39.0677C75.4502 39.0975 72.5877 39.1019 69.7142 39.1C67.3192 39.0983 62.929 39.0376 61.8959 39.0314C61.734 39.0304 61.6039 39.0032 61.6055 38.9706C61.6072 38.938 61.74 38.9122 61.9019 38.9132C62.9279 38.9194 67.3033 38.9799 69.6893 38.9816C72.5573 38.9835 75.4137 38.9792 78.2795 38.9496C88.2327 38.8466 98.2145 38.8534 108.184 38.8678C110.529 38.8712 111.484 38.9306 112.717 38.9132C113.007 38.9091 113.313 38.9049 113.655 38.9005C114.924 38.8843 116.169 38.8556 117.321 38.8221C119.772 38.7508 121.796 38.6576 122.712 38.6153C122.903 38.6065 123.046 38.5997 123.134 38.596ZM130.667 38.6456C132.475 38.6367 135.046 38.6524 137.292 38.6664C138.387 38.6732 139.406 38.6797 140.221 38.6825C141.484 38.6867 142.28 38.715 143.068 38.743C143.077 38.7433 143.085 38.7437 143.094 38.744C143.882 38.772 144.671 38.7997 145.954 38.8041C147.247 38.8084 149.037 38.789 150.843 38.7696H150.847C152.643 38.7504 154.464 38.6711 155.781 38.6756C160.368 38.6915 163.197 38.7728 164.627 38.8365C167.128 38.948 169.966 38.8228 172.521 38.9637C172.803 38.9949 172.328 39.0851 171.808 39.0592C171.79 39.0585 171.771 39.0577 171.752 39.057C171.573 39.0502 171.417 39.0446 171.197 39.0401C170.878 39.0365 170.64 39.0362 170.423 39.036C169.855 39.0355 165.907 39.0142 164.511 38.952C163.153 38.8916 160.384 38.9531 155.768 38.9371C154.476 38.9326 152.69 38.8684 150.885 38.8878C150.88 38.8878 150.875 38.888 150.87 38.888C149.078 38.9073 147.27 38.9267 145.955 38.9222C144.626 38.9177 143.801 38.8886 143.003 38.8602C142.995 38.8599 142.987 38.8598 142.979 38.8595C142.198 38.8317 141.439 38.8047 140.223 38.8006C139.39 38.7978 138.359 38.7914 137.257 38.7845C135.02 38.7706 132.485 38.7547 130.692 38.7635C130.531 38.7643 130.394 38.7385 130.387 38.7059C130.38 38.6733 130.505 38.6464 130.667 38.6456ZM130.704 37.9093C135.785 37.7783 140.894 37.8151 145.905 37.9535C147.212 37.9579 149.037 37.9671 150.86 37.9764C150.88 37.9766 150.901 37.9768 150.921 37.9769C152.724 37.9861 154.519 37.9951 155.807 37.9996C160.395 38.0155 163.234 38.0367 164.664 38.1004C165.997 38.1598 166.368 38.1601 166.916 38.1605C166.931 38.1605 166.946 38.1604 166.961 38.1605C166.962 38.1604 166.963 38.1603 166.964 38.1602C166.983 38.1587 166.999 38.1579 167.007 38.1576C167.024 38.1568 167.037 38.1565 167.042 38.1563C167.054 38.1561 167.063 38.1561 167.067 38.1561C167.081 38.156 167.098 38.156 167.108 38.1561C167.206 38.1567 167.512 38.1603 167.755 38.1651C168.003 38.1701 168.18 38.1766 168.367 38.1837C168.386 38.1844 168.405 38.1852 168.423 38.1859C168.592 38.1923 168.775 38.1991 169.039 38.2066C169.2 38.2113 169.314 38.2412 169.294 38.2735C169.274 38.3058 169.128 38.3282 168.967 38.3236C168.69 38.3156 168.495 38.3083 168.326 38.3019C168.307 38.3011 168.288 38.3004 168.269 38.2997C168.091 38.2929 167.934 38.2873 167.714 38.2828C167.395 38.2792 167.158 38.2791 166.941 38.2789C166.373 38.2784 165.945 38.2779 164.548 38.2157C163.191 38.1552 160.426 38.1335 155.809 38.1175C154.518 38.1131 152.721 38.104 150.92 38.0948C150.899 38.0947 150.878 38.0947 150.857 38.0946C149.033 38.0853 147.211 38.076 145.906 38.0716C140.821 38.0544 135.84 38.1135 130.73 38.0274C129.79 38.0321 128.93 38.0341 128.134 38.0357C125.791 38.0407 123.992 38.0443 122.278 38.1161C121.902 38.1318 120.916 38.1453 119.493 38.162C119.075 38.1668 118.617 38.172 118.123 38.1776C117.865 38.1805 117.598 38.1835 117.321 38.1866C116.292 38.1983 115.13 38.2119 113.855 38.2281C113.516 38.2324 113.212 38.2365 112.922 38.2406C111.684 38.2581 110.707 38.2721 108.339 38.2686C105.425 38.2645 100.542 38.235 97.9314 38.2125C96.6236 38.2012 95.8852 38.1909 95.3629 38.1822C95.2176 38.1798 95.0897 38.1775 94.9724 38.1754C94.6659 38.17 94.4277 38.1657 94.1156 38.1629C91.8689 38.1428 90.2959 38.1566 87.7189 38.1854C87.5574 38.1872 87.4163 38.1623 87.4041 38.1297C87.392 38.0972 87.5132 38.0693 87.6747 38.0675C90.2556 38.0386 91.8527 38.0244 94.1302 38.0448C94.4559 38.0477 94.7107 38.0522 95.0226 38.0577C95.1383 38.0598 95.2619 38.062 95.3999 38.0643C95.9135 38.0729 96.6441 38.0834 97.9449 38.0946C100.551 38.1171 105.426 38.1463 108.331 38.1505C110.676 38.1539 111.635 38.1403 112.869 38.1229C113.159 38.1188 113.464 38.1143 113.806 38.11C115.1 38.0935 116.28 38.0798 117.321 38.068C117.583 38.065 117.837 38.0622 118.081 38.0594C118.575 38.0538 119.032 38.0486 119.447 38.0438C120.9 38.0268 121.825 38.0138 122.147 38.0003C123.922 37.9261 125.799 37.9222 128.164 37.9173C128.952 37.9157 129.794 37.9138 130.704 37.9093ZM78.431 38.159C78.5925 38.1574 78.7327 38.1826 78.7442 38.2152C78.7556 38.2478 78.6339 38.2755 78.4724 38.2772C77.619 38.286 77.0054 38.2934 76.5258 38.2992C75.6382 38.3098 75.2092 38.3147 74.5667 38.3138C72.9081 38.3115 71.3066 38.3104 69.8658 38.3094C67.4708 38.3078 65.5188 38.3063 64.4858 38.3001C64.3238 38.2992 64.1937 38.272 64.1954 38.2394C64.1972 38.2068 64.3297 38.1813 64.4915 38.1822C65.5172 38.1884 67.4545 38.1896 69.8405 38.1913C71.2831 38.1922 72.89 38.1933 74.5591 38.1957C75.1822 38.1965 75.5873 38.1919 76.4551 38.1815C76.9343 38.1758 77.5548 38.1681 78.431 38.159Z" fill="url(#paint10_linear_12909_2374)"/>
<path d="M68.5255 50.4481C68.5255 51.4748 68.1821 52.2948 67.4955 52.9081C66.8155 53.5215 65.9455 53.8281 64.8855 53.8281H62.6155V47.1281H64.9355C66.0088 47.1281 66.8755 47.4348 67.5355 48.0481C68.1955 48.6548 68.5255 49.4548 68.5255 50.4481ZM67.4755 50.4481C67.4755 49.7415 67.2388 49.1681 66.7655 48.7281C66.2988 48.2881 65.6888 48.0681 64.9355 48.0681H63.6355V52.8981H64.8855C65.6321 52.8981 66.2488 52.6781 66.7355 52.2381C67.2288 51.7915 67.4755 51.1948 67.4755 50.4481ZM75.6371 53.9381C74.8904 53.9381 74.2704 53.6948 73.7771 53.2081C73.2838 52.7215 73.0371 52.1015 73.0371 51.3481C73.0371 50.6281 73.2704 50.0215 73.7371 49.5281C74.2038 49.0348 74.7971 48.7881 75.5171 48.7881C76.2438 48.7881 76.8238 49.0215 77.2571 49.4881C77.6971 49.9481 77.9171 50.5281 77.9171 51.2281V51.6281H73.9971C74.0504 52.0548 74.2271 52.4015 74.5271 52.6681C74.8271 52.9281 75.1938 53.0581 75.6271 53.0581C76.2938 53.0581 76.7704 52.7915 77.0571 52.2581L77.8171 52.6481C77.6038 53.0681 77.3071 53.3881 76.9271 53.6081C76.5538 53.8281 76.1238 53.9381 75.6371 53.9381ZM74.0371 50.9881H76.9271C76.9071 50.5948 76.7671 50.2781 76.5071 50.0381C76.2471 49.7981 75.9138 49.6781 75.5071 49.6781C75.1071 49.6781 74.7738 49.8015 74.5071 50.0481C74.2471 50.2948 74.0904 50.6081 74.0371 50.9881ZM84.4591 53.9381C83.5124 53.9381 82.8491 53.5748 82.4691 52.8481L83.2291 52.4281C83.4557 52.8748 83.8524 53.0981 84.4191 53.0981C84.7124 53.0981 84.9491 53.0415 85.1291 52.9281C85.3157 52.8081 85.4091 52.6448 85.4091 52.4381C85.4091 52.2515 85.3124 52.1081 85.1191 52.0081C84.9257 51.9081 84.6924 51.8315 84.4191 51.7781C84.1457 51.7248 83.8691 51.6615 83.5891 51.5881C83.3157 51.5081 83.0824 51.3648 82.8891 51.1581C82.6957 50.9448 82.5991 50.6648 82.5991 50.3181C82.5991 49.8848 82.7691 49.5281 83.1091 49.2481C83.4557 48.9681 83.8957 48.8281 84.4291 48.8281C85.2957 48.8281 85.9091 49.1581 86.2691 49.8181L85.5091 50.2481C85.3224 49.8615 84.9691 49.6681 84.4491 49.6681C84.2091 49.6681 84.0057 49.7281 83.8391 49.8481C83.6724 49.9615 83.5891 50.1115 83.5891 50.2981C83.5891 50.4781 83.6857 50.6181 83.8791 50.7181C84.0724 50.8181 84.3057 50.8948 84.5791 50.9481C84.8524 51.0015 85.1257 51.0715 85.3991 51.1581C85.6791 51.2381 85.9157 51.3848 86.1091 51.5981C86.3024 51.8048 86.3991 52.0781 86.3991 52.4181C86.3991 52.8715 86.2091 53.2381 85.8291 53.5181C85.4557 53.7981 84.9991 53.9381 84.4591 53.9381ZM92.3316 47.7681C92.2116 47.8948 92.0616 47.9581 91.8816 47.9581C91.7016 47.9581 91.5483 47.8948 91.4216 47.7681C91.295 47.6415 91.2316 47.4881 91.2316 47.3081C91.2316 47.1281 91.295 46.9748 91.4216 46.8481C91.5483 46.7148 91.7016 46.6481 91.8816 46.6481C92.0616 46.6481 92.2116 46.7148 92.3316 46.8481C92.4583 46.9748 92.5216 47.1281 92.5216 47.3081C92.5216 47.4881 92.4583 47.6415 92.3316 47.7681ZM91.3916 48.9281H92.3816V53.8281H91.3916V48.9281ZM99.8044 56.1981C99.271 56.1981 98.7944 56.0815 98.3744 55.8481C97.9544 55.6215 97.6344 55.2948 97.4144 54.8681L98.2444 54.4181C98.5644 54.9981 99.0777 55.2881 99.7844 55.2881C100.304 55.2881 100.721 55.1148 101.034 54.7681C101.354 54.4281 101.514 53.9715 101.514 53.3981V53.0081C101.141 53.6015 100.561 53.8981 99.7744 53.8981C99.0744 53.8981 98.4844 53.6548 98.0044 53.1681C97.5244 52.6815 97.2844 52.0781 97.2844 51.3581C97.2844 50.6515 97.5344 50.0515 98.0344 49.5581C98.5344 49.0581 99.1544 48.8081 99.8944 48.8081C100.634 48.8081 101.254 49.0548 101.754 49.5481C102.254 50.0348 102.504 50.6415 102.504 51.3681V53.3881C102.504 54.2281 102.251 54.9048 101.744 55.4181C101.238 55.9381 100.591 56.1981 99.8044 56.1981ZM99.8844 52.9681C100.338 52.9681 100.721 52.8115 101.034 52.4981C101.348 52.1848 101.504 51.8015 101.504 51.3481C101.504 50.9015 101.348 50.5248 101.034 50.2181C100.721 49.9048 100.338 49.7481 99.8844 49.7481C99.4377 49.7481 99.0544 49.9048 98.7344 50.2181C98.421 50.5248 98.2644 50.9015 98.2644 51.3481C98.2644 51.7948 98.421 52.1781 98.7344 52.4981C99.0544 52.8115 99.4377 52.9681 99.8844 52.9681ZM109.953 49.7581C109.493 49.7581 109.136 49.9215 108.883 50.2481C108.636 50.5748 108.513 50.9781 108.513 51.4581V53.8281H107.523V51.3581C107.523 50.6181 107.736 50.0081 108.163 49.5281C108.589 49.0481 109.186 48.8081 109.953 48.8081C110.726 48.8081 111.329 49.0481 111.763 49.5281C112.203 50.0015 112.423 50.6081 112.423 51.3481V53.8281H111.433V51.4681C111.433 50.9815 111.303 50.5748 111.043 50.2481C110.783 49.9215 110.419 49.7581 109.953 49.7581ZM126.192 53.9381C125.619 53.9381 125.112 53.8148 124.672 53.5681C124.232 53.3148 123.912 52.9615 123.712 52.5081L124.572 52.0881C124.839 52.6815 125.379 52.9781 126.192 52.9781C126.592 52.9781 126.922 52.8881 127.182 52.7081C127.442 52.5215 127.572 52.2681 127.572 51.9481C127.572 51.8081 127.542 51.6848 127.482 51.5781C127.429 51.4648 127.366 51.3781 127.292 51.3181C127.219 51.2515 127.106 51.1915 126.952 51.1381C126.799 51.0848 126.669 51.0481 126.562 51.0281C126.462 51.0015 126.309 50.9681 126.102 50.9281C125.856 50.8815 125.646 50.8348 125.472 50.7881C125.299 50.7415 125.099 50.6681 124.872 50.5681C124.652 50.4681 124.472 50.3548 124.332 50.2281C124.199 50.0948 124.082 49.9215 123.982 49.7081C123.889 49.4948 123.842 49.2515 123.842 48.9781C123.842 48.4248 124.062 47.9615 124.502 47.5881C124.942 47.2148 125.482 47.0281 126.122 47.0281C126.649 47.0281 127.119 47.1515 127.532 47.3981C127.952 47.6381 128.259 47.9815 128.452 48.4281L127.602 48.8681C127.309 48.2748 126.802 47.9781 126.082 47.9781C125.736 47.9781 125.442 48.0715 125.202 48.2581C124.969 48.4381 124.852 48.6681 124.852 48.9481C124.852 49.0881 124.882 49.2115 124.942 49.3181C125.002 49.4248 125.069 49.5115 125.142 49.5781C125.222 49.6448 125.339 49.7081 125.492 49.7681C125.646 49.8215 125.779 49.8615 125.892 49.8881C126.012 49.9148 126.172 49.9481 126.372 49.9881C126.619 50.0348 126.826 50.0815 126.992 50.1281C127.166 50.1748 127.359 50.2481 127.572 50.3481C127.792 50.4481 127.969 50.5648 128.102 50.6981C128.236 50.8248 128.349 50.9948 128.442 51.2081C128.542 51.4215 128.592 51.6648 128.592 51.9381C128.592 52.5248 128.362 53.0048 127.902 53.3781C127.442 53.7515 126.872 53.9381 126.192 53.9381ZM135.572 53.9581C134.972 53.9581 134.509 53.7881 134.182 53.4481C133.862 53.1015 133.702 52.6415 133.702 52.0681V49.7881H132.732V48.9281H133.702V47.6581H134.692V48.9281H136.572V49.7881H134.692V52.0381C134.692 52.3581 134.779 52.6081 134.952 52.7881C135.125 52.9681 135.362 53.0581 135.662 53.0581C135.995 53.0581 136.299 52.9615 136.572 52.7681V53.6781C136.299 53.8648 135.965 53.9581 135.572 53.9581ZM143.784 52.9881C144.224 52.9881 144.567 52.8248 144.814 52.4981C145.067 52.1715 145.194 51.7681 145.194 51.2881V48.9281H146.184V51.4081C146.184 52.1415 145.971 52.7481 145.544 53.2281C145.117 53.7081 144.531 53.9481 143.784 53.9481C143.044 53.9481 142.461 53.7081 142.034 53.2281C141.614 52.7415 141.404 52.1315 141.404 51.3981V48.9281H142.394V51.2981C142.394 51.7715 142.517 52.1715 142.764 52.4981C143.011 52.8248 143.351 52.9881 143.784 52.9881ZM155.327 53.2181C154.827 53.7048 154.207 53.9481 153.467 53.9481C152.727 53.9481 152.107 53.7015 151.607 53.2081C151.107 52.7081 150.857 52.1015 150.857 51.3881C150.857 50.6415 151.097 50.0248 151.577 49.5381C152.064 49.0515 152.677 48.8081 153.417 48.8081C154.084 48.8081 154.637 49.0515 155.077 49.5381L155.087 46.6781H156.077V51.3881C156.077 52.1148 155.827 52.7248 155.327 53.2181ZM152.317 52.5381C152.63 52.8581 153.014 53.0181 153.467 53.0181C153.92 53.0181 154.304 52.8581 154.617 52.5381C154.93 52.2181 155.087 51.8315 155.087 51.3781C155.087 50.9315 154.93 50.5481 154.617 50.2281C154.304 49.9081 153.92 49.7481 153.467 49.7481C153.014 49.7481 152.63 49.9081 152.317 50.2281C152.004 50.5481 151.847 50.9315 151.847 51.3781C151.847 51.8315 152.004 52.2181 152.317 52.5381ZM162.235 47.7681C162.115 47.8948 161.965 47.9581 161.785 47.9581C161.605 47.9581 161.452 47.8948 161.325 47.7681C161.198 47.6415 161.135 47.4881 161.135 47.3081C161.135 47.1281 161.198 46.9748 161.325 46.8481C161.452 46.7148 161.605 46.6481 161.785 46.6481C161.965 46.6481 162.115 46.7148 162.235 46.8481C162.362 46.9748 162.425 47.1281 162.425 47.3081C162.425 47.4881 162.362 47.6415 162.235 47.7681ZM161.295 48.9281H162.285V53.8281H161.295V48.9281ZM171.658 53.1981C171.158 53.6981 170.541 53.9481 169.808 53.9481C169.075 53.9481 168.455 53.6981 167.948 53.1981C167.441 52.6915 167.188 52.0815 167.188 51.3681C167.188 50.6615 167.441 50.0581 167.948 49.5581C168.455 49.0581 169.075 48.8081 169.808 48.8081C170.541 48.8081 171.158 49.0581 171.658 49.5581C172.158 50.0581 172.408 50.6615 172.408 51.3681C172.408 52.0815 172.158 52.6915 171.658 53.1981ZM168.648 52.5281C168.968 52.8481 169.355 53.0081 169.808 53.0081C170.261 53.0081 170.641 52.8481 170.948 52.5281C171.261 52.2081 171.418 51.8248 171.418 51.3781C171.418 50.9248 171.261 50.5381 170.948 50.2181C170.641 49.8981 170.261 49.7381 169.808 49.7381C169.348 49.7381 168.961 49.8981 168.648 50.2181C168.335 50.5381 168.178 50.9248 168.178 51.3781C168.178 51.8248 168.335 52.2081 168.648 52.5281Z" fill="url(#paint11_linear_12909_2374)"/>
<defs>
<linearGradient id="paint0_linear_12909_2374" x1="14.5157" y1="16.1617" x2="34.7232" y2="56.6092" gradientUnits="userSpaceOnUse">
<stop stop-color="#537993"/>
<stop offset="0.25" stop-color="#F77847"/>
<stop offset="0.5" stop-color="#FEA800"/>
<stop offset="1" stop-color="#EADDBF"/>
</linearGradient>
<linearGradient id="paint1_linear_12909_2374" x1="14.5157" y1="16.1617" x2="34.7232" y2="56.6092" gradientUnits="userSpaceOnUse">
<stop stop-color="#537993"/>
<stop offset="0.25" stop-color="#F77847"/>
<stop offset="0.5" stop-color="#FEA800"/>
<stop offset="1" stop-color="#EADDBF"/>
</linearGradient>
<linearGradient id="paint2_linear_12909_2374" x1="20.2728" y1="0.839727" x2="21.8584" y2="10.6019" gradientUnits="userSpaceOnUse">
<stop stop-color="#537993"/>
<stop offset="0.25" stop-color="#F77847"/>
<stop offset="0.5" stop-color="#FEA800"/>
<stop offset="1" stop-color="#EADDBF"/>
</linearGradient>
<linearGradient id="paint3_linear_12909_2374" x1="28.3307" y1="25.5756" x2="28.9694" y2="35.3827" gradientUnits="userSpaceOnUse">
<stop offset="0.1875"/>
<stop offset="1" stop-color="#57002A" stop-opacity="0"/>
</linearGradient>
<linearGradient id="paint4_linear_12909_2374" x1="30.5772" y1="24.2586" x2="29.8892" y2="13.9699" gradientUnits="userSpaceOnUse">
<stop offset="0.1875"/>
<stop offset="1" stop-color="#57002A" stop-opacity="0"/>
</linearGradient>
<linearGradient id="paint5_linear_12909_2374" x1="31.77" y1="24.2303" x2="31.4481" y2="10.7672" gradientUnits="userSpaceOnUse">
<stop stop-color="#537993"/>
<stop offset="1" stop-color="#FBB11F"/>
</linearGradient>
<linearGradient id="paint6_linear_12909_2374" x1="156.35" y1="12.2768" x2="166.625" y2="29.9075" gradientUnits="userSpaceOnUse">
<stop stop-color="#537993"/>
<stop offset="0.25" stop-color="#F77847"/>
<stop offset="0.5" stop-color="#FEA800"/>
<stop offset="1" stop-color="#EADDBF"/>
</linearGradient>
<linearGradient id="paint7_linear_12909_2374" x1="133.014" y1="3.05909" x2="151.165" y2="23.2125" gradientUnits="userSpaceOnUse">
<stop stop-color="#537993"/>
<stop offset="0.25" stop-color="#F77847"/>
<stop offset="0.5" stop-color="#FEA800"/>
<stop offset="1" stop-color="#EADDBF"/>
</linearGradient>
<linearGradient id="paint8_linear_12909_2374" x1="108.366" y1="11.5207" x2="120.235" y2="29.4124" gradientUnits="userSpaceOnUse">
<stop stop-color="#537993"/>
<stop offset="0.25" stop-color="#F77847"/>
<stop offset="0.5" stop-color="#FEA800"/>
<stop offset="1" stop-color="#EADDBF"/>
</linearGradient>
<linearGradient id="paint9_linear_12909_2374" x1="71.7817" y1="3.30205" x2="86.4355" y2="32.0173" gradientUnits="userSpaceOnUse">
<stop stop-color="#537993"/>
<stop offset="0.25" stop-color="#F77847"/>
<stop offset="0.5" stop-color="#FEA800"/>
<stop offset="1" stop-color="#EADDBF"/>
</linearGradient>
<linearGradient id="paint10_linear_12909_2374" x1="58.0016" y1="37.6473" x2="58.087" y2="42.2408" gradientUnits="userSpaceOnUse">
<stop stop-color="#537993"/>
<stop offset="0.25" stop-color="#F77847"/>
<stop offset="0.5" stop-color="#FEA800"/>
<stop offset="1" stop-color="#EADDBF"/>
</linearGradient>
<linearGradient id="paint11_linear_12909_2374" x1="90.5939" y1="46.7893" x2="91.2428" y2="58.2207" gradientUnits="userSpaceOnUse">
<stop stop-color="#537993"/>
<stop offset="0.25" stop-color="#F77847"/>
<stop offset="0.5" stop-color="#FEA800"/>
<stop offset="1" stop-color="#EADDBF"/>
</linearGradient>
</defs>
</svg>
